<?xml version="1.0" encoding="utf-8"?>
<!-- Generator: Adobe Illustrator 22.1.0, SVG Export Plug-In . SVG Version: 6.00 Build 0)  -->
<svg version="1.1" id="Capa_1" xmlns="http://www.w3.org/2000/svg" xmlns:xlink="http://www.w3.org/1999/xlink" x="0px" y="0px"
	 viewBox="0 0 16 16" style="enable-background:new 0 0 16 16;" xml:space="preserve">
<style type="text/css">
	.st0{fill:#FFFFFF;}
</style>
<path class="st0" d="M7.9,0c0.6,0,1.1,0.4,1.1,1v5.3l5.1-2.6c0.5-0.3,1.2-0.1,1.5,0.4c0.3,0.5,0.1,1.1-0.4,1.4c0,0,0,0,0,0L10.2,8
	l5.1,2.6c0.5,0.3,0.7,0.9,0.4,1.4c-0.3,0.5-1,0.6-1.5,0.4c0,0,0,0,0,0L9.1,9.7V15c0,0.6-0.5,1-1.1,1c-0.6,0-1.1-0.4-1.1-1V9.7
	l-5.1,2.6c-0.5,0.3-1.2,0.1-1.5-0.4c-0.3-0.5-0.1-1.1,0.4-1.4c0,0,0,0,0,0L5.7,8L0.5,5.4C0,5.1-0.2,4.5,0.1,4c0.3-0.5,1-0.6,1.5-0.4
	l5.1,2.6V1C6.8,0.4,7.3,0,7.9,0z"/>
</svg>
