<?xml version="1.0" encoding="utf-8"?>
<!-- Generator: Adobe Illustrator 22.1.0, SVG Export Plug-In . SVG Version: 6.00 Build 0)  -->
<svg version="1.1" id="Capa_1" xmlns="http://www.w3.org/2000/svg" xmlns:xlink="http://www.w3.org/1999/xlink" x="0px" y="0px"
	 viewBox="0 0 16 16" style="enable-background:new 0 0 16 16;" xml:space="preserve">
<style type="text/css">
	.st0{fill:#FFFFFF;}
</style>
<path class="st0" d="M11,6c0,1.7-1.3,3-3,3S5,7.7,5,6s1.3-3,3-3S11,4.3,11,6z"/>
<path class="st0" d="M2,0C0.9,0,0,0.9,0,2v12c0,1.1,0.9,2,2,2h12c1.1,0,2-0.9,2-2V2c0-1.1-0.9-2-2-2H2z M14,1c0.6,0,1,0.4,1,1v12
	c0,0.6-0.4,1-1,1v-1c0-1-1-4-6-4s-6,3-6,4v1c-0.6,0-1-0.4-1-1V2c0-0.6,0.4-1,1-1H14z"/>
</svg>
