<?xml version="1.0" encoding="utf-8"?>
<!-- Generator: Adobe Illustrator 22.1.0, SVG Export Plug-In . SVG Version: 6.00 Build 0)  -->
<svg version="1.1" id="Capa_1" xmlns="http://www.w3.org/2000/svg" xmlns:xlink="http://www.w3.org/1999/xlink" x="0px" y="0px"
	 viewBox="0 0 486 80" style="enable-background:new 0 0 486 80;" xml:space="preserve">
<style type="text/css">
	.st0{fill:#E00000;}
</style>
<title>logo</title>
<path class="st0" d="M172,44.6c0-2,0-3.9,0-6c0-0.3,0-0.7-0.1-1.1c-0.2-1-0.8-1.3-1.8-1c-1.5,0.3-2.6,1.5-3,3
	c-0.3,1.3-1,2.5-2.2,3.3c-0.6,0.5-1.2,1.3-1.4,2.1c-0.5,1.9-1.7,3.6-3.3,4.7c-1,1-2.2,1.7-3.6,2.2c-0.3,0.1-0.6,0.3-0.8,0.6
	c-1.2,1.7-3,2.5-4.7,3.4c-1.4,0.9-2.9,0.2-4.3,0.1c-0.7-0.1-1.5-0.3-2.2-0.6c-0.6-0.2-1.2-0.5-1.6-1c-0.6-0.7-1.3-1.5-2-2.1
	c-0.3-0.3-0.5-0.9-0.5-1.4c0-1.1,0-2.1,0.1-3.2s0.2-1.8,0.2-2.8c0-1-0.6-1.4-1.5-0.9c-0.9,0.6-1.8,1.4-2.5,2.2
	c-0.5,0.9-1.4,1.5-2.3,1.7c-0.9,0-1.9,0.7-2.1,1.7c-0.2,0.7-0.9,1-1.7,1.2c-2.5,0.7-5.1,1.4-7.7,1.7c-1.2,0.1-2.4,0.1-3.6,0
	c-2.3-0.1-4.6,0.4-6.6,1.7c-1.3,0.6-2.6,1.2-3.9,1.5c-1,0.3-2.1,0.6-3.1,1c-0.7,0.3-1.6,0.3-2.2,0c-0.9-0.4-2-0.4-2.8,0
	c-1,0.3-2.1,0.6-3.1,1c-0.8,0.3-1.7,0.2-2.4-0.2c-0.7-0.4-1.7-0.5-2.4-0.2c-1.4,0.4-2.8,0.7-4.3,0.7c-0.5,0.1-1,0.2-1.6,0.4
	c-0.4,0.2-0.8,0.4-1.4,0.5c-2.1,0.5-2.3,0.4-3.5-1.6c-0.5-1.2-1.6-2-2.8-2.3c-1-0.2-2-0.5-3-0.9c-1-0.2-1.8-1.3-1.6-2.3
	c0-0.1,0-0.2,0.1-0.2c0.2-1.1,0.6-2,1.2-2.8c0.7-1.2,1.5-2.5,2.1-3.7c0.1-0.2,0-0.5-0.1-0.7c-0.2-0.1-0.5-0.1-0.7,0.1
	c-0.2,0.1-0.5,0.3-0.6,0.5c-1.7,2.3-3.1,4.7-4.9,6.8c-1.2,1.3-1.8,3.2-3.6,3.8c-0.2,0.1-0.3,0.4-0.5,0.6s-0.3,0.6-0.6,0.9
	c-2,1.1-3.8,2.7-6.3,2.7c-0.3,0-0.7,0.1-0.9,0.3c-0.6,0.7-1.5,0.7-2.3,1c-0.6,0.2-1.4,0.4-2,0.6c-1,0.6-2.3,0.7-3.5,0.3
	c-1-0.2-2.2-0.3-3.3-0.2c-1.7-0.2-2.3-0.9-2.3-2.6c0-0.4,0.2-0.9,0.2-1.3c0.1-0.9-0.5-1.5-1.3-1.6c-0.2,0-0.3,0-0.5,0
	c-0.8,0.2-1.8,0.2-2.7,0c-0.5-0.1-0.9-0.1-1.4,0.1c-0.7,0.4-1.7,0.4-2.4,0c-0.2-0.1-0.5-0.2-0.8-0.2c-2.3,0.1-3.9-1.4-5.5-2.6
	c-2.1-1.5-4.8-1.7-7.1-0.4c-0.4,0.2-0.7,0.4-0.9,0.9c-0.6,0.9-1.5,1.6-2.3,2.1c-0.4,0.2-0.7,0.4-0.9,0.7c-0.7,1.3-2.1,1.3-3.2,1.7
	c-0.3,0.1-0.7,0.1-1-0.1c-0.7-0.5-1.8-0.5-2.6,0c-0.2,0.1-0.5,0.2-0.8,0.3c-0.8,0.2-1.5,1-1.5,1.9c-0.1,1.5-0.7,2.9-1.8,4.1
	C9.3,65.6,9,66.4,8.9,67c-0.4,0.9-0.7,1.8-1.2,2.8c-0.2,0.5-0.4,1.1-0.6,1.6c-0.2,1.2,0.2,1.5,1.4,1.3c0.5-0.1,1-0.3,1.7-0.3
	c0.3,0,0.6,0.1,0.8,0.4c0.1,0.2,0.1,0.5,0,0.7c-0.5,0.9-1.2,1.8-1.8,2.7c0,0.1-0.1,0.1-0.1,0.1c-1.5,0.4-2.3,1.7-3.6,2.6
	c-1.3,0.6-2.9,0.2-3.7-1.1c-1.2-2.1-1.7-4.6-1.4-7c0-0.1,0-0.3,0.1-0.4c1-1.5,1-3.4,1.7-5c0.6-1.6,1.2-3,1.8-4.6
	c0.1-0.2,0.1-0.4,0.1-0.6c-0.1-1.3,0.2-2.6,1-3.6c0.2-0.4,0.3-0.7,0.4-1.2c0.1-0.5,0.2-1,0.4-1.5c1.6-2,2.5-4.6,4.3-6.5
	c1.8-1.8,3.1-4.1,3.8-6.5c0.4-1.2,1-2.1,1.9-3c1.5-1.8,3.5-3.1,4.5-5.3c0.3-0.5,0.7-1,1.3-1.4c0.8-0.7,1.6-1.6,2.1-2.6
	c0.5-1.2,1.4-2.1,2.5-2.8c0.5-0.2,0.8-0.7,1-1.3c0.8-2,2.4-3.7,4.3-4.8c0.5-0.3,0.9-0.6,1.2-1.2c0.5-0.9,1.4-1.7,2.2-2.2
	c1.2-0.7,2.2-1.7,3-2.9c1.3-2,3.5-3.1,4.8-4.9c0.4-0.3,0.9-0.5,1.6-0.5c1.2,0,2.2-0.4,2.9-1.3c0.8-0.7,1.8-1.3,2.8-1.8
	c0.4-0.2,0.9-0.2,1.4-0.1c1,0.3,2.2,0.4,3.3,0.3c0.7,0,1.6,0.5,2,1.4c0.3,0.5,0.6,1.2,0.7,1.7c0.2,0.6,0.3,1.4,0.1,2.1
	c-0.8,1.5-0.8,3.2-1.7,4.6c-0.3,0.5-0.6,1.1-1.2,1.5c-0.6,0.5-1.2,1.3-1.5,2c-0.5,1.6-1.6,2.9-2.9,3.7c-0.9,0.5-1.6,1.4-1.9,2.5
	c-0.3,0.7-0.7,1.3-1.4,1.9c-0.4,0.4-0.7,0.9-1,1.3c-0.9,2.1-2.3,4.1-3.9,5.8c-1.5,1.7-2.9,3.4-4.3,5.2c-0.9,1.4-2,2.7-3.1,3.9
	c-0.3,0.3-0.6,0.6-0.7,1c-0.3,0.7-0.8,1.3-1.5,1.7c-0.6,0.5-1,1.2-1.4,1.8c-0.4,1.1-0.2,1.4,0.9,1.8c1.2,0.4,2.1,1.1,3.3,1
	c0.3,0,0.6,0.2,0.9,0.4c1.8,1.2,3.9,1.6,6,1.5c0.9,0,1.8-0.4,2.3-1.3c0.7-1,1.6-1.8,2.3-2.8c0.3-0.3,0.4-0.6,0.6-1.1
	c0.3-1,0.8-1.8,1.7-2.5c0.6-0.5,1-1.2,1.2-2c0-0.3,0.1-0.9,0.3-1c1.4-1.1,1.4-2.9,2.3-4.2c0.3-0.4,0.6-0.9,1.2-1.2
	c0.9-0.6,1.8-1.4,2.6-2.1c0.6-0.6,1.3-1.1,2-1.5c1-0.6,2.3-0.6,3.3-0.1c0.5,0.2,1.2,0.4,1.9,0.3c1.2,0,2.2,0.5,2.9,1.4
	c0.5,0.6,1.3,1.2,2.1,1.4c0.4,0.1,0.7,0.3,1,0.6c0.8,1.2,1.6,2.3,2.3,3.5c0.3,0.5,0.6,0.6,0.9,0.2c0.6-0.7,1.5-1.4,2.3-1.8
	c1.4-0.6,2.4-1.8,3-3.1c0.2-0.6,0.7-1.2,1.4-1.5c0.4-0.3,0.7-0.6,0.9-1.1c0.8-1.4,1.8-2.7,2.9-3.8c0.4-0.4,0.7-0.9,1-1.3
	c0.8-1.1,1.6-2.1,2.3-3.3c0.2-0.2,0.4-0.4,0.4-0.7c0.5-1.4,1.2-2.8,2.1-3.9c0.4-0.7,0.7-1.5,0.9-2.3c0.2-1.2,0.7-2.3,1.7-3.2
	c0.8-0.9,1.6-1.8,2-3c0.4-1.1,0.7-1.3,1.8-1.1c0.8,0.2,1.7,0.2,2.4-0.1c0.8-0.3,1.7,0.2,2,1c0.1,0.3,0.1,0.7,0,1.2
	c-0.2,0.5-0.4,1.1-0.8,1.5c-1.8,2.5-3.3,5.1-4.6,7.9c-0.3,0.6-0.5,1.3-0.7,1.9c-0.2,0.4-0.2,0.9-0.5,1.2c-0.7,0.7-1.3,1.7-1.4,2.8
	c-0.6,2-1.2,4.1-2.8,5.7c-0.4,0.4-0.5,1.3-0.6,1.9c-0.1,0.4-0.5,1.1,0.1,1.4c0.5,0.2,1,0.2,1.6,0c1-0.7,2.2-1.2,3.5-1.4
	c0.4-0.1,0.7-0.5,1-0.6c0.8-0.4,1.7-0.9,2.4-1.2c0.2-0.1,0.5-0.2,0.8-0.2c1.5,0.3,2.9,0.7,4.4,1.4c1.4,0.7,2.4,2,3,3.5
	c0.3,0.9,0.7,1.7,1,2.6c0.4,0.9,0.4,2,0,2.9c-0.9,1.9-1.6,3.9-3,5.5c-0.4,0.4-0.8,0.9-1.4,1.3c-0.3,0.2-0.5,0.4-0.7,0.7
	c-0.2,0.3-0.4,0.9-0.3,1.2c0.1,0.3,0.6,0.4,1,0.5c1.2,0.2,2.3,0.1,3.2-0.4c0.3-0.2,0.6-0.3,0.9-0.3c1.8,0.4,2.8-1.1,4.2-1.6
	c0.4-0.2,0.7-0.5,0.9-0.9c0.4-0.4,0.6-1,0.4-1.5c-0.2-1.1-0.2-2.1-0.4-3.2c-0.1-1,0-1.8,0.4-2.7c0.3-0.9,0.4-1.6,0.4-2.5
	c-0.1-1,0.3-1.8,1-2.5c0.4-0.3,0.7-0.9,0.8-1.4c0.2-0.7,0.6-1.4,1.4-1.8c0.5-0.3,0.9-0.6,1.4-1.1c1-1,2.5-1.4,3.9-1.3
	c1.2,0.1,2.4,0.3,3.6,0.5c0.5,0.1,0.9,0.4,1,1c0.5,1.3,0.9,2.7,0.9,4.2c0,1.4,0,2.9-0.1,4.3c0,0.5-0.2,1-0.5,1.4
	c-0.6,0.9-0.8,1.8-0.6,2.9c0,1.1,1,1.6,1.7,1c0.8-0.9,1.9-1.2,2.8-1.8c0.8-0.6,1.6-1.3,2.4-2c0.4-0.4,0.9-0.9,1.4-1.4
	c0.4-0.4,0.7-0.9,1-1.4c1-1.9,2-3.7,2.9-5.7c0.2-0.5,0.2-1.1,0.1-1.6c-0.3-0.9,0-1.8,0.6-2.3c0.9-0.7,1.7-1.8,2-3
	c0.2-0.9,1.2-1.4,2.1-1.2c0.2,0.1,0.4,0.2,0.6,0.4c1.6,1.4,3.2,2.8,4.1,4.8c0.1,0.2,0.3,0.4,0.2,0.5c0,1.5,0.9,2.2,2,3
	c1,0.7,0.9,1,0.3,2c-0.1,0.1-0.2,0.2-0.2,0.3c-0.6,2.9-1.9,5.7-1.8,8.7c0,0.7-0.1,1.4-0.1,2.1c0,0.3,0,0.7,0,1.1
	c0.2,1.9,0.9,2.1,2.5,1.2c1-0.5,2-1.5,2.3-2.7c0.1-0.6,0.7-1.1,1.4-1.1c0.9,0,1.7-0.7,1.7-1.6c0.3-2.1,1.6-3.6,2.8-5.2
	c0.6-0.7,1-1.6,1.5-2.6c0.3-0.7,0.1-1.3-0.7-1.5c-0.8-0.1-1.6-0.6-2-1.4c-0.5-1.1-0.8-2.2-0.8-3.5c0.1-1.1,0.6-1.5,1.8-1.7
	c1.9-0.3,3.8-0.7,5.8-1.2c0.9-0.1,1.7-0.9,2-1.7c0.5-1.4,1-2.9,1.5-4.4c0.1-0.7,0.5-1.5,1-2c0.8-0.6,1.3-1.8,1.2-2.9
	c-0.1-1,0.3-2,1-2.6c0.8-0.9,1.3-1.9,1.3-3.1c0.1-0.9,0.2-1.7,1.2-2.1c0.3-0.1,0.4-0.5,0.6-0.9c0.2-0.3,0.1-0.6,0.3-0.7
	c1.4-0.7,1.7-2.5,2.8-3.4c0.5-0.5,0.8-1.4,0.8-2.1c0.4-1.7,1.2-2.1,2.8-1.8c0.5,0.1,0.9,0.1,1.5,0.2c2.1,0.4,3.7,2.2,3.7,4.4
	c0,1.8,0.3,3.7-0.6,5.4c-0.1,0.3-0.2,0.7-0.1,1.1c0.2,1.8-0.1,3.7-0.8,5.4c-0.3,0.7-0.4,1.5-0.3,2.2c0.2,1.8-0.1,3.6-1,5.1
	c-0.4,0.7-0.5,1.6-0.3,2.5c0.2,1,0.5,1.3,1.5,1.3c1.3,0,2.5-0.2,3.8-0.4c0.8-0.3,1.9-0.2,2.5,0.4c0.5,0.6,1.5,0.6,2,0.1
	c0,0,0,0,0.1-0.1c0.9-0.6,2-1.1,3.1-1c2.9,0.1,5.6-0.7,8.6-0.7c1.9,0,3.8-0.2,5.6-0.4c1-0.1,2.1-0.3,3.1-0.4c0.3,0,0.7,0,1,0
	c1.4-0.1,2.6-0.2,4-0.2c0.6,0,1.3,0,1.9,0c3.2,0.1,6.6-0.1,9.8-0.7c0.6-0.1,1.3-0.2,1.9-0.2c2.4,0.1,4.7-0.1,7.1-0.5
	c0.5-0.1,0.9-0.1,1.5,0c1.9,0.3,3.9,0.6,5.8,1.2c1.4,0.4,2.6,1,3.8,1.7c0.9,0.7,1.2,2.2,0.4,3.2c-0.1,0.1-0.2,0.3-0.4,0.4
	c-0.1,0.1-0.3,0.1-0.4,0.2c-0.6,0.6-1.4,1.2-2.1,1.6c-0.8,0.3-1.8,0.4-2.6,0.5c-0.5,0.2-1.2,0.1-1.6-0.2c-0.6-0.4-1.5-0.6-2.2-0.5
	c-1.2,0.2-2.3,0-3.2-0.5c-0.9-0.4-2.1-0.5-3.1-0.3c-0.7,0.2-1.6,0.1-2.2-0.3c-0.7-0.5-1.8-0.6-2.6-0.2c-0.6,0.2-1.2,0.4-1.8,0.5
	c-0.4,0.2-0.9,0.2-1.5,0.2c-1-0.2-2.1-0.2-3.1,0c-2.3,0.4-4.6,0.1-6.9,0.2c-1.4,0-2.8-0.3-4.1-0.7c-0.5-0.1-0.9-0.2-1.4,0.1
	c-1.4,1-3,1.6-4.7,1.7c-1.6,0.2-3.2,0.1-4.7,1c-0.3,0.1-0.7,0.1-1,0.1c-0.4,0-0.8,0-1.3,0.1c-2.2,0.5-4.4,1-6.6,1.3
	c-0.2,0-0.4,0.1-0.6,0.2c-0.6,0.2-0.9,0.6-0.7,1.3c0.3,1.1,0.2,2.2,0.9,3.3c0.3,0.5,0.3,1.1,0.3,1.6c-0.1,1-0.1,1.8,0.1,2.8
	c0.3,1.6,0.2,3.3-0.2,4.9c-0.3,1.3-0.5,2.7-0.8,3.9c-0.2,1-0.5,1.9-0.7,2.9c0,0.1-0.1,0.3-0.1,0.4c-1.7,1.4-2.7,3.6-5.1,4.2
	c-1.3,0.3-2.5,0.7-3.8,1.3c-0.7,0.4-1.7,0.2-2.4-0.3c-0.5-0.4-1.2-0.9-1.8-1c-0.9-0.3-1.8-1-2.2-1.8c-0.9-1.5-1.7-3.2-2-4.9
	c-0.1-0.4-0.2-0.9-0.3-1.3c-0.2-0.7-0.3-1.5-0.4-2.3c0-1.8,0-3.5,0-5.3L172,44.6z M46.4,15.6c-0.1-0.1-0.3-0.3-0.4-0.2
	c-0.3,0.2-0.7,0.4-0.9,0.7c-1.2,1.1-2.2,2.1-3.3,3.2c-0.3,0.2-0.6,0.5-0.9,0.9c-0.9,1.2-2,2.1-3.3,2.9c-0.5,0.3-1,0.7-1.3,1.3
	c-0.7,1.3-1.7,2.5-2.8,3.3c-1.3,1-2.5,2.1-3.6,3.3c-1.8,2-3.3,4.2-5,6.3c-0.2,0.3-0.5,0.5-0.8,0.6c-1.2,0.4-2,1.4-2.2,2.7
	c-0.2,0.4-0.4,0.7-0.6,1.1c-1.3,2-2.6,4.1-3.9,6.1c-0.4,0.6-0.7,1.4-0.9,2.1c-0.1,0.3,0,0.6,0.2,1c0.3,0.1,0.6,0.1,0.9-0.1
	c0.5-0.3,0.9-0.9,1.5-1.3c0.3-0.3,0.7-0.6,1.2-0.9c0.7-0.1,1.5-0.6,1.8-1.4c0.1-0.3,0.4-0.5,0.7-0.7c1.2-0.6,2-1.7,2.4-2.9
	c0.3-0.9,0.9-1.5,1.7-1.8c0.7-0.3,1.3-1,1.4-1.7c0.1-0.9,0.7-1.6,1.6-1.8c0.6-0.1,1.2-0.6,1.3-1.3c0.2-0.9,0.8-1.7,1.7-2
	c0.5-0.3,0.9-0.7,1.3-1.3c0.8-1.6,1.5-3.3,2.9-4.5c0.2-0.2,0.2-0.5,0.4-0.7c0.3-0.5,0.6-1,0.9-1.4c1.4-1.6,2.6-3.1,4-4.7
	c0.2-0.3,0.4-0.5,0.6-0.9c0.5-0.6,1-1.4,1.5-2c0.8-1.2,1.6-2.2,2.4-3.4C46.3,15.8,46.3,15.7,46.4,15.6L46.4,15.6z M83.5,51.8
	c0,0.6,0.3,1.2,0.8,1.4c0.8,0.4,1.8,0.5,2.6,0.1c1.3-0.5,2.5-1,3.7-1.5c0.8-0.3,1.6-0.9,2.2-1.5c0.8-1.2,1.9-2.1,2.9-3.1
	c0.4-0.3,0.7-0.7,0.9-1.2c0.5-0.7,0.9-1.6,1.5-2.3c0.3-0.6,0.5-1.3,0.7-2c0.2-0.9-0.2-1.8-0.9-2.2c-0.6-0.4-1.5-0.2-1.9,0.3
	c-0.5,0.4-1.2,0.7-1.8,1c-0.8,0.4-1.6,0.9-2.3,1.5c-1,0.7-2,1.6-3,2.2c-2.1,1.4-3.7,3.3-4.8,5.5C83.9,50.5,83.7,51.1,83.5,51.8z
	 M56.5,50.5h-0.2c0,0.3,0,0.6,0.1,0.9c0.6,1,1.4,2,2.1,2.9c0.3,0.4,0.9,0.5,1.4,0.2c0.1,0,0.1-0.1,0.2-0.2c0.6-0.6,1.2-1.4,1.7-2.1
	c0.4-0.5,0.3-1-0.3-1.2c-0.6-0.2-1.3-0.5-1.9-0.9c-0.7-0.3-1.3-1.2-1.2-2c0.1-0.9,0.8-1,1.6-1.1c0.7-0.1,1.5-0.4,2.1-0.9
	c0.7-0.7,1.7-1.3,2.6-1.7c0.5-0.1,0.7-0.6,0.6-1.2l0,0c-0.3-1-0.5-2-0.6-3.1c-0.1-0.6-0.6-1.2-1.3-1.3c-0.5-0.2-1.2,0-1.5,0.5
	c-1.2,1.9-2.7,3.6-4,5.4c-0.4,0.5-0.6,1.1-0.8,1.7C56.8,47.8,56.7,49.1,56.5,50.5z M183.8,45.6c-0.1-2,0.4-4.2-0.6-6.1
	c-0.2-0.4-0.3-1-0.3-1.5c0-0.3-0.1-0.5-0.2-0.9c-0.2-0.7-1-1.2-1.8-1c-0.3,0.1-0.5,0.3-0.7,0.5c-0.4,0.5-0.9,1.1-1.4,1.6
	s-0.4,1,0,1.3c0.8,0.7,1.3,1.9,1,3.1c-0.1,1.4,0.1,2.9,0.1,4.3c0,2,0.7,3.7,1.3,5.5c0.1,0.2,0.3,0.4,0.5,0.5c0.2,0,0.4-0.2,0.6-0.4
	c0.1,0,0.1-0.1,0.1-0.2c0.5-1.8,1.5-3.5,1.3-5.5C183.7,46.6,183.8,46.1,183.8,45.6z M116.7,43.3c0.1,0.2,0.2,0.7,0.5,0.9
	c0.4,0.1,0.8,0,1.2-0.2c0.3-0.2,0.5-0.4,0.8-0.6c1.7-1.3,2.1-3.3,2.9-5.1c0.3-0.6-0.1-1.2-0.6-1.7c-0.6-0.4-1,0-1.5,0.3
	c-2.2,1.4-2.4,3.8-3.2,6C116.7,43,116.7,43.1,116.7,43.3z"/>
<path class="st0" d="M381.2,45.1c0-0.6-0.1-1.2-0.1-1.8c0-0.7,0.1-1.4,0.3-2.1c0.4-1.4,0.9-2.6,1.4-4c0.2-0.4,0.1-0.8-0.2-1.2
	c-0.4-0.3-0.8-0.6-1.4-0.3c-1.1,0.6-2.2,1-2.5,2.4c-0.1,0.4-0.4,0.9-0.5,1.4c-0.1,0.9-0.7,1.8-1.6,2.1c-0.6,0.2-1.1,0.7-1.2,1.4
	c-0.2,0.8-0.6,1.6-1.4,2c-0.9,0.7-1.8,1.6-2.7,2.3c-0.6,0.5-1.4,0.9-2.1,1.4c-0.2,0.1-0.4,0.1-0.5,0.3c-1.8,2.2-4.4,1.8-6.7,2.3
	c-1.3,0.3-2.5-0.6-3.6-1.5c-0.5-0.4-0.8-0.9-1.3-1.4s-0.9-0.8-1.6-1c-0.6-0.3-1.5-0.1-1.9,0.5c-0.3,0.6-1.1,0.9-1.8,0.9
	c-0.1,0-0.3,0-0.4,0c-3.2,0.9-5.7-0.4-8.1-2.3c-0.6-0.5-0.6-0.5-1.5,0c-1.5,1-2.9,2.1-4.5,2.9c-0.8,0.4-1.7,0.6-2.6,0.8
	c-0.2,0.1-0.6,0-0.8,0.1c-1.9,0.9-3.4-0.2-4.9-0.9c-0.3-0.1-0.5-0.4-0.9-0.5c-0.8-0.2-1.7-0.6-2.3-1.4c-0.7-0.7-1.3-0.6-2,0.1
	c-0.3,0.3-0.5,0.8-0.8,1.3c-0.4,0.5-0.7,1.3-1.4,1.6c-0.9,0.4-1.8,1-2.6,1.8c-0.6,0.5-1.4,0.6-2.1,0.4c-1.5-0.5-3.1-0.7-4.6-0.6
	c-0.8,0.1-1.7-0.1-2.4-0.6c-0.4-0.4-1.2-0.3-1.6,0.1c-0.9,0.8-2.1,1.2-3.3,1c-1.2-0.1-2.4,0.2-3.4,0.8c-1.1,0.7-2.3,0.3-3.5,0.6
	c-0.6,0.1-1.3,0-1.9,0.1c-0.6,0.1-1.3,0-1.8-0.3c-0.8-0.5-1.9-0.7-2.8-0.5c-1.5,0.3-3.1-0.3-3.8-1.7c-0.3-0.3-0.6-0.6-1.1-0.9
	c-0.3-0.2-0.6-0.3-0.8-0.6c-1.3-1.6-2.9-1.6-4.6-1.5c-0.7,0-1.5,0.1-2.1,0.3c-1.5,0.5-3.1,0.2-4.1-0.8c-0.7-0.7-1.7-1.3-2.7-1.5
	c-0.7-0.1-1.4-0.4-1.8-0.9c-0.6-0.6-1.5-0.9-2.3-0.8c-0.9-0.1-2,0.2-2.7,0.8c-0.9,0.8-1.9,1.7-2.7,2.5c-1.5,1.4-3.1,2.5-4.7,3.5
	c-0.9,0.5-2,0.7-3.1,0.3c-0.7-0.2-1.5-0.3-2.2-0.2c-1.1,0-1.6-0.3-1.8-1.4c-0.5-1.6,0.1-3.3,1.5-4c0.4-0.3,0.8-0.5,1.3-0.7
	c1.1-0.4,2-1.2,2.5-2.1c0.2-0.4,0.5-0.7,0.8-0.9c1.5-0.9,2.8-2,4.1-3.3c0.7-0.5,1.4-1.2,1.9-1.9c0.3-0.5,0.8-0.9,1.5-1.2
	c0.5-0.1,1.1-0.5,1.2-1c0.5-1.4,1.4-2.4,2.5-3.3c2-1.5,3.6-3.4,4.7-5.6c0.1-0.3,0.2-0.5,0.4-0.7c1.9-1.8,3.1-4.2,5.1-5.9
	c0.4-0.4,0.7-0.8,1.1-1.4c0.2-0.3,0.4-0.6,0.7-0.7c1.1-0.4,1.8-1.3,2-2.3c0.2-0.5,0.5-0.9,0.9-1.4c1.2-1.4,2.7-2.5,3.2-4.4
	c0-0.2,0.4-0.4,0.5-0.6c0.5-0.6,0.7-1.4,0.8-2.1c0-0.4-0.3-0.7-0.6-0.6c-0.6,0.4-1.5,0.5-2.2,0.2c-0.2-0.1-0.4-0.1-0.6,0
	c-1.7,1-3.8,1.2-5.1,2.8c-0.7,1-1.7,1.9-2.8,2.4c-0.3,0.1-0.5,0.6-0.6,1c-0.2,0.8-0.8,1.6-1.7,2c-0.7,0.4-1.5,0.9-2.1,1.5
	c-0.3,0.2-0.5,0.4-0.6,0.7c-0.8,2.2-2.5,3.7-4.2,5.1c-0.7,0.6-1.4,1.4-2,2.2c-0.4,0.5-0.6,1-1.1,1.6c-1.9,2.2-3.6,4.6-5.1,7.2
	c-0.3,0.5-0.7,1-1.3,1.4c-1.2,0.8-2,2-2.3,3.5c-0.2,0.8-0.6,1.6-1.2,2.2c-0.6,1-1.4,2.1-2.1,3c-0.1,0.1-0.2,0.2-0.2,0.3
	c-0.1,1.8-1.5,2.9-2.3,4.4c-1.1,1.4-1.6,3-1.5,4.7c0,0.8-0.3,1.7-0.7,2.4c-0.6,1-1.1,2.2-1.1,3.4c0,0.2,0,0.4-0.1,0.6
	c-0.8,1.7-0.8,3.5-1.5,5.2c-0.5,1.3-0.8,2.7-0.8,4.1c0,0.5-0.1,1.2-0.3,1.7c-0.3,0.9-0.4,1.9-0.3,2.9c0,0.9,0.4,1.8,1.3,2.2
	c1.7,1,1.6,2.8-0.2,3.9c-1.2,0.7-2.5,0.9-3.8,0.3c-3.7-1.6-3.1-1.2-3.4-4.5c0-0.5-0.1-1.2-0.2-1.7c-0.2-0.9-0.1-1.8,0.3-2.7
	c0.6-1.6,0.9-3.3,0.8-4.9c-0.1-1.4,0.3-2.6,1.2-3.8c0.3-0.5,0.5-1.2,0.5-1.8c0.1-0.7,0.2-1.4,0.3-2.1c0.9-2.7,1.6-5.6,1.9-8.4
	c0.1-0.4,0.2-0.8,0.4-1.2c0.4-0.9,0.7-2,1.2-2.9c0.1-0.3,0.2-0.6,0.4-0.9c0.7-0.8,1.2-1.9,1.5-3c0.3-0.7,0.7-1.4,1.2-1.9
	c1.2-1.5,2.3-3.1,3.4-4.7c0.4-1,0.9-2.1,1.6-3.1c0.1-0.2,0.1-0.4,0.3-0.5c1.4-0.9,2.2-2.3,2.5-3.9c0.1-0.2,0.2-0.4,0.4-0.4
	c1.3-0.4,1.9-1.7,2.8-2.4c0.8-0.6,1.5-1.6,1.7-2.6c0-0.3,0.2-0.6,0.5-0.8c0.8-0.6,1.6-1.5,2-2.4c1.2-2,2.9-3.4,4.4-5
	c0.4-0.3,0.7-0.8,1.1-1.3c0.4-1,0.9-2,2.3-2.2c0.3,0,0.6-0.4,0.7-0.6c0.7-1,1.8-1.8,2.9-2.4c0.3-0.2,0.8-0.3,1.1-0.6
	c1.1-1.5,2.6-2,4.2-2.5c0.5-0.3,1.1-0.7,1.4-1.2c0.7-1,1.9-1.6,3.2-1.4c1.2,0.1,2.2-0.1,3.3-0.4c1.6-0.6,3.3-0.4,4.6,0.5
	c0.4,0.3,1.1,0.4,1.6,0.4c1.4-0.1,2,0.9,2.8,1.6c0.2,0.2,0.2,0.8,0.1,1.2c-0.2,1.7-0.4,3.3-0.6,4.9c0,0.6-0.2,1.3-0.7,1.7
	c-0.3,0.3-0.6,0.7-0.9,1.2c-1.3,2.1-2.5,4.2-3.8,6.3c-0.3,0.5-0.6,0.9-0.9,1.4c-0.9,1.4-2,2.7-2.9,4.1c-0.5,0.6-1.1,1.3-1.7,1.8
	c-1.6,1.3-2.8,2.7-3.8,4.5c-0.6,0.9-1.4,1.8-2.3,2.4c-1.4,1.3-2.8,2.5-4.2,3.8c-0.3,0.3-0.5,0.6-0.8,0.9c-0.3,0.4-0.2,1.2,0.2,1.5
	l0,0c0.5,0.4,1.2,0.8,1.7,1.3c1.2,0.9,2.4,1.9,3.6,2.9c1.2,1,1.6,1.3,2.9,0.5c0.5-0.3,0.9-0.5,1.5-0.7c0.9-0.3,1.6-1.2,1.5-2.1
	c0-0.5,0-0.9,0-1.5c0-0.5,0.2-1,0.4-1.6c0.5-0.7,0.7-1.6,0.6-2.4c-0.1-0.8,0.3-1.7,1.1-2.1c0.9-0.6,1.7-1.6,2.1-2.6
	c0.8-1.3,2-2.2,3.3-2.8c0.9-0.5,1.9-0.9,2.8-1.4c0.5-0.2,1.1-0.3,1.6-0.1c0.9,0.4,2,0.7,2.9,1.3c2,1.2,2.8,3.5,2,5.6
	c-0.4,0.9-1.2,1.8-1.7,2.6c-0.4,0.6-0.6,1.2-1.1,1.8c-0.1,0.3-0.3,0.6-0.5,0.9c-1.1,1.3-2.1,2.4-3.3,3.6c-1.2,1.2-1.8,2.3-3.1,3.1
	c-0.6,0.4-0.5,1.5,0.2,2c0.7,0.5,1.4,1,2,1.5c1.4,0.9,3.2,1,4.6,0.5c2-0.5,4-1.4,5.8-2.4c1.9-0.9,3.2-2.6,3.7-4.7
	c0.5-2.9,1.8-5.8,3.7-8.2c0.7-0.7,1.5-1.5,2.3-2.1c0.1-0.1,0.5,0,0.7,0.2c0.7,0.3,1.1,0.3,1.4-0.3c0.1-0.1,0.1-0.2,0.1-0.4
	c0.1-0.5,0.1-0.9,0.7-1.3c0.6-0.3,1.4-0.3,2,0.1c1.6,0.8,3.1,1.7,4.6,2.5c1.3,0.9,2.9,0.6,3.9-0.6c0.1-0.1,0.1-0.2,0.2-0.2
	c1.3-1.9,2.6-3.8,3.1-6.2c0.1-0.4,0.2-0.9,0.2-1.4c0-0.5,0.2-1.2,0.6-1.5c0.6-0.5,1.1-1.4,1.1-2.2c0.2-1.9,1.1-3.6,2.6-4.6
	c0.4-0.4,0.6-0.8,0.8-1.5c0.3-0.7,0.4-1.5,0.6-2.2c0.2-1.2,0.7-2.1,1.7-2.8c0.3-0.3,0.6-0.7,0.9-1.2c1.6-2,3.7-2.5,6-2.2
	c0.4,0.1,0.8,0.4,1.2,0.7c0.6,0.7,0.9,1.8,0.7,2.7c-0.2,1.2-0.6,2.3-1.1,3.4c-0.8,2.2-1.8,4.3-2.9,6.3c-0.7,1.4-1.2,2.8-2.5,3.8
	c-0.4,0.3-0.6,0.7-0.7,1.3c-0.1,0.7-0.5,1.5-1.2,2c-0.2,0.2-0.3,0.4-0.3,0.7c0,0.9-0.4,1.9-1.2,2.6c-1.1,1.3-1.8,2.6-2.2,4.1
	c-1.7,2.3-1.9,5.1-2.5,7.8c-0.1,0.3-0.1,0.5-0.1,0.8c-0.1,0.9,0.4,1.8,1.2,2.3c0.7,0.5,1.4-0.2,1.9-0.5c2-1.6,3.9-3.1,4.8-5.8
	c0.3-1.2,1.1-2.1,2-2.9c0.8-0.8,1.5-1.9,1.9-2.9c0.6-1.3,1.2-2.6,2.3-3.5c0.1-0.1,0.2-0.2,0.2-0.3c0.1-1.4,1.3-2.3,1.6-3.7
	c0.3-0.9,0.6-1.9,2-1.8c0.2,0,0.5-0.4,0.7-0.6c0.8-0.8,1.5-0.6,1.8,0.5c0,0.1,0,0.3,0,0.4c0.3,1.5,0.3,1.5,1.8,1.5
	c0.4,0,0.8,0,1.3,0.2c1.3,0.6,2.7,1,4.2,1.2c1.2,0,2.2,0.8,2.4,2c0.3,1.3,1.1,2.4,2.1,3.4c0.5,0.4,0.6,1,0.5,1.7
	c-0.2,0.7-0.2,1.5-0.4,2.3c0,0.5-0.2,0.9-0.3,1.4c-1.2,2.3-0.6,4.8-0.7,7.2c0,0.9,0.6,1.2,1.5,0.5c1.6-1,3.1-2.2,4.4-3.6
	c1.6-1.7,2.7-3.8,3.4-6c0.1-0.4,0.1-0.8,0.1-1.3s0-0.8,0-1.3c0.2-1.7,0.8-2.4,2.5-2.6c1.3-0.1,2.7-0.4,3.7,0.8
	c0.3,0.3,0.7,0.4,1.2,0.2l0,0c0.6-0.4,1.5-0.5,2.2-0.2c0.4,0.2,0.9,0.2,1.5,0.1c1.4-0.2,2.6,0,3.9,0.5c1.1,0.4,2,1,2.8,1.8
	c0.2,0.1,0.2,0.6,0.1,0.9c0,0.3-0.2,0.3-0.4,0.5c-1.6,1.5-2.4,3.6-2.2,5.7c0.1,1.2-0.1,2.2-0.5,3.4c-0.4,0.9-0.2,1.6,0.3,1.9
	c0.6,0.4,1.6,0.3,2.1-0.2c1.1-0.7,1.9-1.7,2.6-2.6c1.2-1.5,2-3,2.6-4.7c0.3-1,0.8-1.9,1.7-2.6c1.3-1.2,1.6-2.6,2.1-4.1
	c0.5-1.5-0.3-2.2-1.6-2.5c-1.6-0.4-3.1-0.9-4.5-1.6c-0.9-0.6-1.8-1.4-2.4-2.3c-0.5-0.5-0.5-1.4,0.1-1.9c0.2-0.2,0.4-0.3,0.7-0.3
	c1.1-0.3,2.2-0.4,3.4-0.3c0.5,0.1,1.2,0,1.7-0.2c0.7-0.3,1.7-0.3,2.5-0.1c0.4,0.1,0.8,0.2,1.3,0.2c0.6,0,1.3-0.4,1.5-1
	c0.2-0.6,0.4-1.4,0.6-2c0.3-0.9,0.8-1.8,1.4-2.5c0.9-1.3,1.6-2.6,2.4-4c0.1-0.2,0.2-0.4,0.3-0.5c0.6-0.7,1.2-1.6,1.9-1.9
	c0.9-0.2,1.9-0.2,2.9-0.1c1.2,0.4,2,1.4,2.2,2.5c0,1.8,0.1,3.5,0,5.2c-0.1,0.6-0.4,1.2-0.7,1.7c-0.2,0.3-0.5,0.6-0.7,1
	c-0.2,0.3-0.1,0.8,0.3,1h0.1c0.9,0.4,2.1,0.3,3.1-0.2c1.1-0.5,2.3-0.7,3.5-0.6c1.6,0,3.2-0.2,4.8-0.4c0.3-0.1,0.7-0.1,1.1-0.1
	c1.5,0.3,2.9,0.1,4.3-0.6c0.5-0.2,1.1-0.3,1.6-0.1c1.6,0.5,3.3,0.3,4.7-0.3c0.4-0.1,0.9-0.2,1.4-0.2c0.5,0,1.2-0.1,1.6-0.2
	c1.9-1,3.8-0.5,5.8-0.3c0.7,0.1,1.6,0.1,2.3-0.1c0.8-0.3,1.8-0.4,2.6-0.6c0.3,0,0.6-0.2,0.9-0.4c0.8-0.8,2-1.2,3.1-0.9
	c0.7,0,1.4-0.1,2.1-0.2c0.9-0.1,2-0.2,2.9-0.2c1.2,0,2.2,0.6,2.9,1.5c0.9,0.8,1.1,2.2,0.2,3.1c-0.1,0.1-0.1,0.1-0.2,0.2
	c-0.8,0.8-1.8,1.7-2.8,2.5c-0.8,0.6-1.9,0.9-2.9,0.9c-1.8,0-3.5,0.1-5.3,0.2c-0.3,0-0.7,0.1-1.1,0.2c-1.7,0.8-3.7,1-5.5,0.5
	c-0.7-0.2-1.6-0.2-2.3-0.1c-1.8,0.1-3.5,0.4-5.2,1c-1.2,0.3-2.3,0.4-3.6,0.3c-0.5,0-0.9-0.1-1.5-0.1c-2,0.2-4,0.4-6.1,0.6
	c-0.7,0.1-1.6,0.1-2.3,0.2l-3.2,0.2c-0.3,0-0.5,0.1-0.8,0.1c-1.8,0-3.5,0-5.3,0.1c-1.2,0.1-2.3,0.4-3.5,0.7
	c-0.4,0.2-0.7,0.4-0.9,0.8c-0.8,1-1.4,2.3-1.7,3.6c-0.1,0.5-0.2,1-0.5,1.6c-1.2,1.2-1.3,2.6-1.7,4c-0.2,0.8-0.3,1.8-0.2,2.7
	c0,0.3,0.2,0.5,0.4,0.6c0.8,0.6,2,0.8,3.1,0.5c0.9-0.3,1.9-0.4,2.9-0.4c1.6,0,3.3,0,4.8-0.1c1.1-0.1,2.1-0.2,3.2-0.5
	c0.9-0.2,1.9-0.4,2.8-0.6c1.6-0.5,3.4-0.5,4.9,0.1c0.2,0.1,0.4,0.1,0.6,0.1c2.2-0.2,4.4-0.2,6.7-0.3c0.7,0,1.5-0.3,2.3-0.4
	c0.5-0.1,1.1-0.1,1.6,0.1c0.7,0.3,1.5,0.2,2.2-0.1c1.1-0.4,2.2-0.4,3.3,0c0.8,0.3,1.8,0.4,2.6,0.2c1.1-0.1,2.1-0.1,3.2,0
	c0.4,0,0.7,0.3,0.9,0.6c0.2,0.5,0.7,1,1.3,1.4c0.5,0.3,0.7,1,0.5,1.7c-0.1,0.7-0.6,1.3-1.3,1.5c-1.8,0.4-3.5,0.9-5.3,1.5
	c-0.5,0.2-1.2,0.2-1.6-0.1c-0.7-0.4-1.6-0.4-2.2-0.1c-1.6,0.5-3.4,0.4-4.9-0.2c-1.8-0.6-3.8-0.5-5.6,0.3c-1.3,0.6-2.8,0.9-4.2,0.6
	c-1.1-0.2-2,0-2.9-0.7c-0.2-0.2-1.1,0-1.4,0.2c-1.5,0.9-3.2,1.3-4.8,1c-3.2-0.1-6.3,0.1-9.4,0.8c-0.6,0.1-1.3,0-1.9-0.1
	c-1.2-0.2-2.3-0.4-3.6-0.5c-1.1,0-2.1-0.4-2.7-1.3c-0.3-0.4-0.7-0.8-1.2-1.2c-0.4-0.4-1.1-0.3-1.5,0.1l0,0c-1.2,1.3-2.2,2.5-3.2,4
	c-0.4,0.7-1.2,1.3-2,1.3c-0.5,0-1.2,0.1-1.7,0.2c-0.7,0-1.6,0.2-2.2,0.6c-0.8,0.5-1.8,0.5-2.6,0.1c-0.7-0.3-1.4-0.6-2.1-1
	c-2.1-1-2.7-2.8-2.5-5C381.2,46,381.2,45.5,381.2,45.1z M356.3,32.2c-1.1-0.1-2,0.3-2.6,1.2c-0.3,0.5-0.8,0.9-1.3,1.4
	c-1.8,1.4-2.6,3.5-3.5,5.3c-0.2,0.6-0.2,1.3,0.1,1.8c0.4,0.7,0.9,0.8,1.7,0.5c0.5-0.2,1.1-0.4,1.6-0.6c0.5-0.2,0.9-0.4,1.5-0.8
	c0.6-0.6,1.2-1.4,1.8-2.1c1.3-1.5,1.6-3.4,2.4-5c0.2-0.6,0-1.3-0.6-1.5c-0.1,0-0.2-0.1-0.3-0.1C356.7,32.2,356.5,32.2,356.3,32.2z
	 M315.7,44.9c1.1,0,2.1-0.3,2.9-1c0.6-0.5,1.3-1.2,1.8-1.8c0.9-1,1.9-2.1,0.9-3.7c-0.1-0.2,0-0.5,0-0.8c-0.1-0.5-0.5-0.9-1.1-0.8
	c-0.5,0.1-1.2,0.1-1.7,0.1c-0.7-0.1-1.4,0.2-1.9,0.7c-0.7,0.6-1.2,1.5-1.2,2.4c-0.1,1.2-0.4,2.2-1.1,3.1
	C314,43.9,314.6,44.9,315.7,44.9z M296.2,33.4c0-0.1,0-0.2,0-0.3c-0.1-1-0.7-1.4-1.8-0.9c-0.7,0.3-1.4,0.9-1.8,1.7
	c-0.7,1.2-1.3,2.4-1.9,3.7c-0.1,0.4-0.2,0.9-0.1,1.5c0,0.4,0.4,0.7,0.8,0.6c0.1,0,0.2,0,0.3-0.1c0.2-0.1,0.4-0.3,0.6-0.5
	c1.1-1.3,2-2.4,3.2-3.7C296.1,34.9,296.3,34.2,296.2,33.4z M360.6,46l-0.3-0.2c0,0.1-0.2,0.2-0.1,0.3c0.1,0.1,0.1,0.1,0.2,0.2
	L360.6,46z"/>
<path class="st0" d="M486,11.3c0,1.3-0.3,2.6-1,3.8c-0.2,0.2-0.3,0.5-0.4,0.8c-0.5,1.8-1.9,2.6-3.6,3.2c-0.2,0.1-0.5,0.1-0.7,0.2
	c-1,0.4-2.1,0.5-3.1,0.3c-1-0.2-2.1-0.4-3.1-0.6c-0.4-0.1-0.9-0.3-1.1-0.7c-0.5-0.6-1-1.2-1.5-1.8c-0.9-1.1-1.2-2.4-1.5-3.7
	c-0.4-1.6-0.2-3.4,0.4-5c0.2-0.4,0.4-0.8,0.7-1.2c0.2-0.2,0.5-0.5,0.6-0.8c0.4-1,1.2-1.7,2.2-2.1c1.4-0.7,2.9-1,4.5-0.9
	c1.1,0.1,2.1,0.4,3.1,1c0.1,0.1,0.3,0.2,0.4,0.2c1,0.2,1.6,0.9,2.1,1.7c0.9,1.3,1.5,2.9,1.8,4.4C485.9,10.5,486,10.9,486,11.3z
	 M478.2,4.8c-0.7,0-1.3,0.1-1.9,0.2c-1.8,0.6-3.3,1.9-4,3.8c-0.4,1-0.5,2.1-0.4,3.1c-0.1,1,0.2,1.9,0.9,2.7c1,1,1.8,2.3,3.3,2.7h0.1
	c1.5,0.4,3.2,0.4,4.7-0.1c0.5-0.1,1.1-0.4,1.5-0.9c1-1,1.6-2.3,1.6-3.6c0-0.3,0-0.5,0-0.9c-0.1-2-0.5-3.9-1.9-5.4
	c-0.3-0.3-0.5-0.7-0.9-0.9C480.4,5.1,479.4,4.6,478.2,4.8z"/>
<path class="st0" d="M94.3,23.2l-0.1,0.2L94,23.2l0.1-0.1L94.3,23.2z"/>
<g>
	<path class="st0" d="M476.9,11.8V15h-1.7V7h3.5c1.8,0,2.7,1,2.7,2.2c0,1.1-0.6,1.6-1.2,1.9c0.4,0.1,1,0.5,1,2v0.4
		c0,0.5,0,1.2,0.1,1.5h-1.6c-0.1-0.4-0.2-1-0.2-1.8V13c0-0.9-0.2-1.3-1.5-1.3L476.9,11.8L476.9,11.8z M476.9,10.4h1.5
		c1,0,1.3-0.4,1.3-1c0-0.7-0.4-1-1.3-1h-1.5V10.4z"/>
</g>
</svg>
