<?xml version="1.0" encoding="utf-8"?>
<!-- Generator: Adobe Illustrator 22.1.0, SVG Export Plug-In . SVG Version: 6.00 Build 0)  -->
<svg version="1.0" id="Capa_1" xmlns="http://www.w3.org/2000/svg" xmlns:xlink="http://www.w3.org/1999/xlink" x="0px" y="0px"
	 viewBox="0 0 486 80" enable-background="new 0 0 486 80" xml:space="preserve">
<title>logo</title>
<path fill="#FFFFFF" d="M164.4,41.8c0-1.9,0-3.7,0-5.6c0-0.3,0-0.7-0.1-1c-0.2-0.9-0.8-1.2-1.7-0.9c-1.4,0.3-2.5,1.4-2.9,2.8
	c-0.3,1.2-1,2.3-2.1,3.1c-0.6,0.5-1.1,1.2-1.3,2c-0.5,1.8-1.6,3.4-3.2,4.4c-1,0.9-2.1,1.6-3.4,2.1c-0.3,0.1-0.6,0.3-0.8,0.6
	c-1.1,1.6-2.9,2.3-4.5,3.2c-1.3,0.8-2.8,0.2-4.1,0.1c-0.7-0.1-1.4-0.3-2.1-0.6c-0.6-0.2-1.1-0.5-1.5-0.9c-0.6-0.7-1.2-1.4-1.9-2
	c-0.3-0.3-0.5-0.8-0.5-1.3c0-1,0-2,0.1-3s0.2-1.7,0.2-2.6c0-0.9-0.6-1.3-1.4-0.8c-0.9,0.6-1.7,1.3-2.4,2.1c-0.5,0.8-1.3,1.4-2.2,1.6
	c-0.9,0-1.8,0.7-2,1.6c-0.2,0.7-0.9,0.9-1.6,1.1c-2.4,0.7-4.9,1.3-7.4,1.6c-1.1,0.1-2.3,0.1-3.4,0c-2.2-0.1-4.4,0.4-6.3,1.6
	c-1.2,0.6-2.5,1.1-3.7,1.4c-1,0.3-2,0.6-3,0.9c-0.7,0.3-1.5,0.3-2.1,0c-0.9-0.4-1.9-0.4-2.7,0c-1,0.3-2,0.6-3,0.9
	c-0.8,0.3-1.6,0.2-2.3-0.2c-0.7-0.4-1.6-0.5-2.3-0.2c-1.3,0.4-2.7,0.7-4.1,0.7c-0.5,0.1-1,0.2-1.5,0.4c-0.4,0.2-0.8,0.4-1.3,0.5
	c-2,0.5-2.2,0.4-3.3-1.5c-0.5-1.1-1.5-1.9-2.7-2.2c-1-0.2-1.9-0.5-2.9-0.8c-1-0.2-1.7-1.2-1.5-2.2c0-0.1,0-0.2,0.1-0.2
	c0.2-1,0.6-1.9,1.1-2.6c0.7-1.1,1.4-2.3,2-3.5c0.1-0.2,0-0.5-0.1-0.7c-0.2-0.1-0.5-0.1-0.7,0.1c-0.2,0.1-0.5,0.3-0.6,0.5
	c-1.6,2.2-3,4.4-4.7,6.4c-1.1,1.2-1.7,3-3.4,3.6c-0.2,0.1-0.3,0.4-0.5,0.6s-0.3,0.6-0.6,0.8c-1.9,1-3.6,2.5-6,2.5
	c-0.3,0-0.7,0.1-0.9,0.3c-0.6,0.7-1.4,0.7-2.2,0.9c-0.6,0.2-1.3,0.4-1.9,0.6c-1,0.6-2.2,0.7-3.3,0.3c-1-0.2-2.1-0.3-3.2-0.2
	c-1.6-0.2-2.2-0.8-2.2-2.4c0-0.4,0.2-0.8,0.2-1.2c0.1-0.8-0.5-1.4-1.2-1.5c-0.2,0-0.3,0-0.5,0c-0.8,0.2-1.7,0.2-2.6,0
	c-0.5-0.1-0.9-0.1-1.3,0.1c-0.7,0.4-1.6,0.4-2.3,0c-0.2-0.1-0.5-0.2-0.8-0.2c-2.2,0.1-3.7-1.3-5.3-2.4c-2-1.4-4.6-1.6-6.8-0.4
	c-0.4,0.2-0.7,0.4-0.9,0.8c-0.6,0.8-1.4,1.5-2.2,2c-0.4,0.2-0.7,0.4-0.9,0.7c-0.7,1.2-2,1.2-3.1,1.6c-0.3,0.1-0.7,0.1-1-0.1
	c-0.7-0.5-1.7-0.5-2.5,0c-0.2,0.1-0.5,0.2-0.8,0.3c-0.8,0.2-1.4,0.9-1.4,1.8c-0.1,1.4-0.7,2.7-1.7,3.8c-0.4,0.5-0.7,1.2-0.8,1.8
	c-0.4,0.8-0.7,1.7-1.1,2.6c-0.2,0.5-0.4,1-0.6,1.5c-0.2,1.1,0.2,1.4,1.3,1.2c0.5-0.1,1-0.3,1.6-0.3c0.3,0,0.6,0.1,0.8,0.4
	c0.1,0.2,0.1,0.5,0,0.7c-0.5,0.8-1.1,1.7-1.7,2.5c0,0.1-0.1,0.1-0.1,0.1c-1.4,0.4-2.2,1.6-3.4,2.4c-1.2,0.6-2.8,0.2-3.5-1
	c-1.1-2-1.6-4.3-1.3-6.6c0-0.1,0-0.3,0.1-0.4c1-1.4,1-3.2,1.6-4.7s1.1-2.8,1.7-4.3c0.1-0.2,0.1-0.4,0.1-0.6c-0.1-1.2,0.2-2.4,1-3.4
	c0.2-0.4,0.3-0.7,0.4-1.1c0.1-0.5,0.2-0.9,0.4-1.4c1.5-1.9,2.4-4.3,4.1-6.1c1.7-1.7,3-3.8,3.6-6.1c0.4-1.1,1-2,1.8-2.8
	c1.4-1.7,3.3-2.9,4.3-5c0.3-0.5,0.7-0.9,1.2-1.3c0.8-0.7,1.5-1.5,2-2.4c0.5-1.1,1.3-2,2.4-2.6c0.5-0.2,0.8-0.7,1-1.2
	c0.8-1.9,2.3-3.5,4.1-4.5c0.5-0.3,0.9-0.6,1.1-1.1c0.5-0.8,1.3-1.6,2.1-2.1c1.1-0.7,2.1-1.6,2.9-2.7c1.2-1.9,3.3-2.9,4.6-4.6
	c0.4-0.3,0.9-0.5,1.5-0.5c1.1,0,2.1-0.4,2.8-1.2c0.8-0.7,1.7-1.2,2.7-1.7c0.4-0.2,0.9-0.2,1.3-0.1c1,0.3,2.1,0.4,3.2,0.3
	C53.2,4.7,54,5.2,54.4,6c0.3,0.5,0.6,1.1,0.7,1.6c0.2,0.6,0.3,1.3,0.1,2c-0.8,1.4-0.8,3-1.6,4.3c-0.3,0.5-0.6,1-1.1,1.4
	c-0.6,0.5-1.1,1.2-1.4,1.9c-0.5,1.5-1.5,2.7-2.8,3.5c-0.9,0.5-1.5,1.3-1.8,2.3c-0.3,0.7-0.7,1.2-1.3,1.8c-0.4,0.4-0.7,0.8-1,1.2
	c-0.9,2-2.2,3.8-3.7,5.4c-1.4,1.6-2.8,3.2-4.1,4.9c-0.9,1.3-1.9,2.5-3,3.7c-0.3,0.3-0.6,0.6-0.7,0.9c-0.3,0.7-0.8,1.2-1.4,1.6
	c-0.6,0.5-1,1.1-1.3,1.7c-0.4,1-0.2,1.3,0.9,1.7c1.1,0.4,2,1,3.2,0.9c0.3,0,0.6,0.2,0.9,0.4c1.7,1.1,3.7,1.5,5.7,1.4
	c0.9,0,1.7-0.4,2.2-1.2c0.7-0.9,1.5-1.7,2.2-2.6c0.3-0.3,0.4-0.6,0.6-1c0.3-0.9,0.8-1.7,1.6-2.3c0.6-0.5,1-1.1,1.1-1.9
	c0-0.3,0.1-0.8,0.3-0.9c1.3-1,1.3-2.7,2.2-3.9c0.3-0.4,0.6-0.8,1.1-1.1c0.9-0.6,1.7-1.3,2.5-2c0.6-0.6,1.2-1,1.9-1.4
	c1-0.6,2.2-0.6,3.2-0.1c0.5,0.2,1.1,0.4,1.8,0.3c1.1,0,2.1,0.5,2.8,1.3c0.5,0.6,1.2,1.1,2,1.3c0.4,0.1,0.7,0.3,1,0.6
	c0.8,1.1,1.5,2.2,2.2,3.3c0.3,0.5,0.6,0.6,0.9,0.2c0.6-0.7,1.4-1.3,2.2-1.7c1.3-0.6,2.3-1.7,2.9-2.9c0.2-0.6,0.7-1.1,1.3-1.4
	c0.4-0.3,0.7-0.6,0.9-1c0.8-1.3,1.7-2.5,2.8-3.6c0.4-0.4,0.7-0.8,1-1.2c0.8-1,1.5-2,2.2-3.1c0.2-0.2,0.4-0.4,0.4-0.7
	c0.5-1.3,1.1-2.6,2-3.7c0.4-0.7,0.7-1.4,0.9-2.2c0.2-1.1,0.7-2.2,1.6-3c0.8-0.8,1.5-1.7,1.9-2.8c0.4-1,0.7-1.2,1.7-1
	c0.8,0.2,1.6,0.2,2.3-0.1c0.8-0.3,1.6,0.2,1.9,0.9c0.1,0.3,0.1,0.7,0,1.1c-0.2,0.5-0.4,1-0.8,1.4c-1.7,2.3-3.2,4.8-4.4,7.4
	c-0.3,0.6-0.5,1.2-0.7,1.8c-0.2,0.4-0.2,0.8-0.5,1.1c-0.7,0.7-1.2,1.6-1.3,2.6c-0.6,1.9-1.1,3.8-2.7,5.3c-0.4,0.4-0.5,1.2-0.6,1.8
	c-0.1,0.4-0.5,1,0.1,1.3c0.5,0.2,1,0.2,1.5,0c1-0.7,2.1-1.1,3.3-1.3c0.4-0.1,0.7-0.5,1-0.6c0.8-0.4,1.6-0.8,2.3-1.1
	c0.2-0.1,0.5-0.2,0.8-0.2c1.4,0.3,2.8,0.7,4.2,1.3c1.3,0.7,2.3,1.9,2.9,3.3c0.3,0.8,0.7,1.6,1,2.4c0.4,0.8,0.4,1.9,0,2.7
	c-0.9,1.8-1.5,3.7-2.9,5.2c-0.4,0.4-0.8,0.8-1.3,1.2c-0.3,0.2-0.5,0.4-0.7,0.7c-0.2,0.3-0.4,0.8-0.3,1.1s0.6,0.4,1,0.5
	c1.1,0.2,2.2,0.1,3.1-0.4c0.3-0.2,0.6-0.3,0.9-0.3c1.7,0.4,2.7-1,4-1.5c0.4-0.2,0.7-0.5,0.9-0.8c0.4-0.4,0.6-0.9,0.4-1.4
	c-0.2-1-0.2-2-0.4-3c-0.1-0.9,0-1.7,0.4-2.5c0.3-0.8,0.4-1.5,0.4-2.3c-0.1-0.9,0.3-1.7,1-2.3c0.4-0.3,0.7-0.8,0.8-1.3
	c0.2-0.7,0.6-1.3,1.3-1.7c0.5-0.3,0.9-0.6,1.3-1c1-0.9,2.4-1.3,3.7-1.2c1.1,0.1,2.3,0.3,3.4,0.5c0.5,0.1,0.9,0.4,1,0.9
	c0.5,1.2,0.9,2.5,0.9,3.9c0,1.3,0,2.7-0.1,4c0,0.5-0.2,0.9-0.5,1.3c-0.6,0.8-0.8,1.7-0.6,2.7c0,1,1,1.5,1.6,0.9
	c0.8-0.8,1.8-1.1,2.7-1.7c0.8-0.6,1.5-1.2,2.3-1.9c0.4-0.4,0.9-0.8,1.3-1.3c0.4-0.4,0.7-0.8,1-1.3c1-1.8,1.9-3.5,2.8-5.3
	c0.2-0.5,0.2-1,0.1-1.5c-0.3-0.8,0-1.7,0.6-2.2c0.9-0.7,1.6-1.7,1.9-2.8c0.2-0.8,1.1-1.3,2-1.1c0.2,0.1,0.4,0.2,0.6,0.4
	c1.5,1.3,3.1,2.6,3.9,4.5c0.1,0.2,0.3,0.4,0.2,0.5c0,1.4,0.9,2.1,1.9,2.8c1,0.7,0.9,0.9,0.3,1.9c-0.1,0.1-0.2,0.2-0.2,0.3
	c-0.6,2.7-1.8,5.3-1.7,8.2c0,0.7-0.1,1.3-0.1,2c0,0.3,0,0.7,0,1c0.2,1.8,0.9,2,2.4,1.1c1-0.5,1.9-1.4,2.2-2.5c0.1-0.6,0.7-1,1.3-1
	c0.9,0,1.6-0.7,1.6-1.5c0.3-2,1.5-3.4,2.7-4.9c0.6-0.7,1-1.5,1.4-2.4c0.3-0.7,0.1-1.2-0.7-1.4c-0.8-0.1-1.5-0.6-1.9-1.3
	c-0.5-1-0.8-2.1-0.8-3.3c0.1-1,0.6-1.4,1.7-1.6c1.8-0.3,3.6-0.7,5.5-1.1c0.9-0.1,1.6-0.8,1.9-1.6c0.5-1.3,1-2.7,1.4-4.1
	c0.1-0.7,0.5-1.4,1-1.9c0.8-0.6,1.2-1.7,1.1-2.7c-0.1-0.9,0.3-1.9,1-2.4c0.8-0.8,1.2-1.8,1.2-2.9c0.1-0.8,0.2-1.6,1.1-2
	c0.3-0.1,0.4-0.5,0.6-0.8s0.1-0.6,0.3-0.7c1.3-0.7,1.6-2.3,2.7-3.2c0.5-0.5,0.8-1.3,0.8-2c0.4-1.6,1.1-2,2.7-1.7
	c0.5,0.1,0.9,0.1,1.4,0.2c2,0.4,3.5,2.1,3.5,4.1c0,1.7,0.3,3.5-0.6,5.1c-0.1,0.3-0.2,0.7-0.1,1c0.2,1.7-0.1,3.5-0.8,5.1
	c-0.3,0.7-0.4,1.4-0.3,2.1c0.2,1.7-0.1,3.4-1,4.8c-0.4,0.7-0.5,1.5-0.3,2.3c0.2,0.9,0.5,1.2,1.4,1.2c1.2,0,2.4-0.2,3.6-0.4
	c0.8-0.3,1.8-0.2,2.4,0.4c0.5,0.6,1.4,0.6,1.9,0.1c0,0,0,0,0.1-0.1c0.9-0.6,1.9-1,3-0.9c2.8,0.1,5.4-0.7,8.2-0.7
	c1.8,0,3.6-0.2,5.4-0.4c1-0.1,2-0.3,3-0.4c0.3,0,0.7,0,1,0c1.3-0.1,2.5-0.2,3.8-0.2c0.6,0,1.2,0,1.8,0c3.1,0.1,6.3-0.1,9.4-0.7
	c0.6-0.1,1.2-0.2,1.8-0.2c2.3,0.1,4.5-0.1,6.8-0.5c0.5-0.1,0.9-0.1,1.4,0c1.8,0.3,3.7,0.6,5.5,1.1c1.3,0.4,2.5,0.9,3.6,1.6
	c0.9,0.7,1.1,2.1,0.4,3c-0.1,0.1-0.2,0.3-0.4,0.4c-0.1,0.1-0.3,0.1-0.4,0.2c-0.6,0.6-1.3,1.1-2,1.5c-0.8,0.3-1.7,0.4-2.5,0.5
	c-0.5,0.2-1.1,0.1-1.5-0.2c-0.6-0.4-1.4-0.6-2.1-0.5c-1.1,0.2-2.2,0-3.1-0.5c-0.9-0.4-2-0.5-3-0.3c-0.7,0.2-1.5,0.1-2.1-0.3
	c-0.7-0.5-1.7-0.6-2.5-0.2c-0.6,0.2-1.1,0.4-1.7,0.5c-0.4,0.2-0.9,0.2-1.4,0.2c-1-0.2-2-0.2-3,0c-2.2,0.4-4.4,0.1-6.6,0.2
	c-1.3,0-2.7-0.3-3.9-0.7c-0.5-0.1-0.9-0.2-1.3,0.1c-1.3,0.9-2.9,1.5-4.5,1.6c-1.5,0.2-3.1,0.1-4.5,0.9c-0.3,0.1-0.7,0.1-1,0.1
	c-0.4,0-0.8,0-1.2,0.1c-2.1,0.5-4.2,0.9-6.3,1.2c-0.2,0-0.4,0.1-0.6,0.2c-0.6,0.2-0.9,0.6-0.7,1.2c0.3,1,0.2,2.1,0.9,3.1
	c0.3,0.5,0.3,1,0.3,1.5c-0.1,0.9-0.1,1.7,0.1,2.6c0.3,1.5,0.2,3.1-0.2,4.6c-0.3,1.2-0.5,2.5-0.8,3.7c-0.2,0.9-0.5,1.8-0.7,2.7
	c0,0.1-0.1,0.3-0.1,0.4c-1.6,1.3-2.6,3.4-4.9,3.9c-1.2,0.3-2.4,0.7-3.6,1.2c-0.7,0.4-1.6,0.2-2.3-0.3c-0.5-0.4-1.1-0.8-1.7-0.9
	c-0.9-0.3-1.7-0.9-2.1-1.7c-0.9-1.4-1.6-3-1.9-4.6c-0.1-0.4-0.2-0.8-0.3-1.2c-0.2-0.7-0.3-1.4-0.4-2.2c0-1.7,0-3.3,0-5L164.4,41.8z
	 M44.4,14.6c-0.1-0.1-0.3-0.3-0.4-0.2c-0.3,0.2-0.7,0.4-0.9,0.7c-1.1,1-2.1,2-3.2,3c-0.3,0.2-0.6,0.5-0.9,0.8
	c-0.9,1.1-1.9,2-3.2,2.7c-0.5,0.3-1,0.7-1.2,1.2c-0.7,1.2-1.6,2.3-2.7,3.1c-1.2,0.9-2.4,2-3.4,3.1c-1.7,1.9-3.2,3.9-4.8,5.9
	c-0.2,0.3-0.5,0.5-0.8,0.6c-1.1,0.4-1.9,1.3-2.1,2.5c-0.2,0.4-0.4,0.7-0.6,1c-1.2,1.9-2.5,3.8-3.7,5.7c-0.4,0.6-0.7,1.3-0.9,2
	c-0.1,0.3,0,0.6,0.2,0.9c0.3,0.1,0.6,0.1,0.9-0.1c0.5-0.3,0.9-0.8,1.4-1.2c0.3-0.3,0.7-0.6,1.1-0.8c0.7-0.1,1.4-0.6,1.7-1.3
	c0.1-0.3,0.4-0.5,0.7-0.7c1.1-0.6,1.9-1.6,2.3-2.7c0.3-0.8,0.9-1.4,1.6-1.7c0.7-0.3,1.2-0.9,1.3-1.6c0.1-0.8,0.7-1.5,1.5-1.7
	c0.6-0.1,1.1-0.6,1.2-1.2c0.2-0.8,0.8-1.6,1.6-1.9c0.5-0.3,0.9-0.7,1.2-1.2c0.8-1.5,1.4-3.1,2.8-4.2c0.2-0.2,0.2-0.5,0.4-0.7
	c0.3-0.5,0.6-0.9,0.9-1.3c1.3-1.5,2.5-2.9,3.8-4.4c0.2-0.3,0.4-0.5,0.6-0.8c0.5-0.6,1-1.3,1.4-1.9c0.8-1.1,1.5-2.1,2.3-3.2
	C44.3,14.8,44.3,14.7,44.4,14.6L44.4,14.6z M79.8,48.5c0,0.6,0.3,1.1,0.8,1.3c0.8,0.4,1.7,0.5,2.5,0.1c1.2-0.5,2.4-0.9,3.5-1.4
	c0.8-0.3,1.5-0.8,2.1-1.4c0.8-1.1,1.8-2,2.8-2.9c0.4-0.3,0.7-0.7,0.9-1.1c0.5-0.7,0.9-1.5,1.4-2.2c0.3-0.6,0.5-1.2,0.7-1.9
	c0.2-0.8-0.2-1.7-0.9-2.1c-0.6-0.4-1.4-0.2-1.8,0.3c-0.5,0.4-1.1,0.7-1.7,0.9c-0.8,0.4-1.5,0.8-2.2,1.4c-1,0.7-1.9,1.5-2.9,2.1
	c-2,1.3-3.5,3.1-4.6,5.2C80.2,47.3,80,47.9,79.8,48.5z M54,47.3h-0.2c0,0.3,0,0.6,0.1,0.8c0.6,0.9,1.3,1.9,2,2.7
	c0.3,0.4,0.9,0.5,1.3,0.2c0.1,0,0.1-0.1,0.2-0.2c0.6-0.6,1.1-1.3,1.6-2c0.4-0.5,0.3-0.9-0.3-1.1s-1.2-0.5-1.8-0.8
	c-0.7-0.3-1.2-1.1-1.1-1.9c0.1-0.8,0.8-0.9,1.5-1c0.7-0.1,1.4-0.4,2-0.8c0.7-0.7,1.6-1.2,2.5-1.6c0.5-0.1,0.7-0.6,0.6-1.1
	c0,0,0,0,0,0c-0.3-0.9-0.5-1.9-0.6-2.9c-0.1-0.6-0.6-1.1-1.2-1.2c-0.5-0.2-1.1,0-1.4,0.5c-1.1,1.8-2.6,3.4-3.8,5.1
	c-0.4,0.5-0.6,1-0.8,1.6C54.3,44.8,54.2,46,54,47.3z M175.7,42.7c-0.1-1.9,0.4-3.9-0.6-5.7c-0.2-0.4-0.3-0.9-0.3-1.4
	c0-0.3-0.1-0.5-0.2-0.8c-0.2-0.7-1-1.1-1.7-0.9c-0.3,0.1-0.5,0.3-0.7,0.5c-0.4,0.5-0.9,1-1.3,1.5c-0.4,0.5-0.4,0.9,0,1.2
	c0.8,0.7,1.2,1.8,1,2.9c-0.1,1.3,0.1,2.7,0.1,4c0,1.9,0.7,3.5,1.2,5.2c0.1,0.2,0.3,0.4,0.5,0.5c0.2,0,0.4-0.2,0.6-0.4
	c0.1,0,0.1-0.1,0.1-0.2c0.5-1.7,1.4-3.3,1.2-5.2C175.6,43.7,175.7,43.2,175.7,42.7z M111.6,40.6c0.1,0.2,0.2,0.7,0.5,0.8
	c0.4,0.1,0.8,0,1.1-0.2c0.3-0.2,0.5-0.4,0.8-0.6c1.6-1.2,2-3.1,2.8-4.8c0.3-0.6-0.1-1.1-0.6-1.6c-0.6-0.4-1,0-1.4,0.3
	c-2.1,1.3-2.3,3.6-3.1,5.6C111.6,40.3,111.6,40.4,111.6,40.6z"/>
<path fill="#FFFFFF" d="M374,46.7c0-0.6-0.1-1.1-0.1-1.7c0-0.7,0.1-1.3,0.3-2c0.4-1.3,0.9-2.5,1.3-3.8c0.2-0.4,0.1-0.8-0.2-1.1
	c-0.4-0.3-0.8-0.6-1.3-0.3c-1,0.6-2.1,1-2.4,2.3c-0.1,0.4-0.4,0.9-0.5,1.3c-0.1,0.9-0.7,1.7-1.5,2c-0.6,0.2-1,0.7-1.1,1.3
	c-0.2,0.8-0.6,1.5-1.3,1.9c-0.9,0.7-1.7,1.5-2.6,2.2c-0.6,0.5-1.3,0.9-2,1.3c-0.2,0.1-0.4,0.1-0.5,0.3c-1.7,2.1-4.2,1.7-6.4,2.2
	c-1.2,0.3-2.4-0.6-3.4-1.4c-0.5-0.4-0.8-0.9-1.2-1.3c-0.4-0.4-0.9-0.8-1.5-1c-0.6-0.3-1.4-0.1-1.8,0.5c-0.3,0.6-1,0.9-1.7,0.9
	c-0.1,0-0.3,0-0.4,0c-3,0.9-5.4-0.4-7.7-2.2c-0.6-0.5-0.6-0.5-1.4,0c-1.4,1-2.8,2-4.3,2.8c-0.8,0.4-1.6,0.6-2.5,0.8
	c-0.2,0.1-0.6,0-0.8,0.1c-1.8,0.9-3.2-0.2-4.7-0.9c-0.3-0.1-0.5-0.4-0.9-0.5c-0.8-0.2-1.6-0.6-2.2-1.3c-0.7-0.7-1.2-0.6-1.9,0.1
	c-0.3,0.3-0.5,0.8-0.8,1.2c-0.4,0.5-0.7,1.2-1.3,1.5c-0.9,0.4-1.7,1-2.5,1.7c-0.6,0.5-1.3,0.6-2,0.4c-1.4-0.5-2.9-0.7-4.4-0.6
	c-0.8,0.1-1.6-0.1-2.3-0.6c-0.4-0.4-1.1-0.3-1.5,0.1c-0.9,0.8-2,1.1-3.1,1c-1.1-0.1-2.3,0.2-3.2,0.8c-1,0.7-2.2,0.3-3.3,0.6
	c-0.6,0.1-1.2,0-1.8,0.1c-0.6,0.1-1.2,0-1.7-0.3c-0.8-0.5-1.8-0.7-2.7-0.5c-1.4,0.3-2.9-0.3-3.6-1.6c-0.3-0.3-0.6-0.6-1-0.9
	c-0.3-0.2-0.6-0.3-0.8-0.6c-1.2-1.5-2.8-1.5-4.4-1.4c-0.7,0-1.4,0.1-2,0.3c-1.4,0.5-2.9,0.2-3.9-0.8c-0.7-0.7-1.6-1.2-2.6-1.4
	c-0.7-0.1-1.3-0.4-1.7-0.9c-0.6-0.6-1.4-0.9-2.2-0.8c-0.9-0.1-1.9,0.2-2.6,0.8c-0.9,0.8-1.8,1.6-2.6,2.4c-1.4,1.3-2.9,2.4-4.5,3.3
	c-0.9,0.5-1.9,0.7-2.9,0.3c-0.7-0.2-1.4-0.3-2.1-0.2c-1,0-1.5-0.3-1.7-1.3c-0.5-1.5,0.1-3.1,1.4-3.8c0.4-0.3,0.8-0.5,1.2-0.7
	c1-0.4,1.9-1.1,2.4-2c0.2-0.4,0.5-0.7,0.8-0.9c1.4-0.9,2.7-1.9,3.9-3.1c0.7-0.5,1.3-1.1,1.8-1.8c0.3-0.5,0.8-0.9,1.4-1.1
	c0.5-0.1,1-0.5,1.1-1c0.5-1.3,1.3-2.3,2.4-3.1c1.9-1.4,3.4-3.2,4.5-5.3c0.1-0.3,0.2-0.5,0.4-0.7c1.8-1.7,2.9-4,4.8-5.6
	c0.4-0.4,0.7-0.8,1-1.3c0.2-0.3,0.4-0.6,0.7-0.7c1-0.4,1.7-1.2,1.9-2.2c0.2-0.5,0.5-0.9,0.9-1.3c1.1-1.3,2.6-2.4,3-4.2
	c0-0.2,0.4-0.4,0.5-0.6c0.5-0.6,0.7-1.3,0.8-2c0-0.4-0.3-0.7-0.6-0.6c-0.6,0.4-1.4,0.5-2.1,0.2c-0.2-0.1-0.4-0.1-0.6,0
	c-1.6,1-3.6,1.1-4.8,2.7c-0.7,1-1.6,1.8-2.7,2.3c-0.3,0.1-0.5,0.6-0.6,1c-0.2,0.8-0.8,1.5-1.6,1.9c-0.7,0.4-1.4,0.9-2,1.4
	c-0.3,0.2-0.5,0.4-0.6,0.7c-0.8,2.1-2.4,3.5-4,4.9c-0.7,0.6-1.3,1.3-1.9,2.1c-0.4,0.5-0.6,1-1,1.5c-1.8,2.1-3.4,4.4-4.8,6.9
	c-0.3,0.5-0.7,1-1.2,1.3c-1.1,0.8-1.9,1.9-2.2,3.3c-0.2,0.8-0.6,1.5-1.1,2.1c-0.6,1-1.3,2-2,2.9c-0.1,0.1-0.2,0.2-0.2,0.3
	c-0.1,1.7-1.4,2.8-2.2,4.2c-1,1.3-1.5,2.9-1.4,4.5c0,0.8-0.3,1.6-0.7,2.3c-0.6,1-1,2.1-1,3.2c0,0.2,0,0.4-0.1,0.6
	c-0.8,1.6-0.8,3.3-1.4,5c-0.5,1.2-0.8,2.6-0.8,3.9c0,0.5-0.1,1.1-0.3,1.6c-0.3,0.9-0.4,1.8-0.3,2.8c0,0.9,0.4,1.7,1.2,2.1
	c1.6,1,1.5,2.7-0.2,3.7c-1.1,0.7-2.4,0.9-3.6,0.3c-3.5-1.5-2.9-1.1-3.2-4.3c0-0.5-0.1-1.1-0.2-1.6c-0.2-0.9-0.1-1.7,0.3-2.6
	c0.6-1.5,0.9-3.1,0.8-4.7c-0.1-1.3,0.3-2.5,1.1-3.6c0.3-0.5,0.5-1.1,0.5-1.7c0.1-0.7,0.2-1.3,0.3-2c0.9-2.6,1.5-5.3,1.8-8
	c0.1-0.4,0.2-0.8,0.4-1.1c0.4-0.9,0.7-1.9,1.1-2.8c0.1-0.3,0.2-0.6,0.4-0.9c0.7-0.8,1.1-1.8,1.4-2.9c0.3-0.7,0.7-1.3,1.1-1.8
	c1.1-1.4,2.2-3,3.2-4.5c0.4-1,0.9-2,1.5-3c0.1-0.2,0.1-0.4,0.3-0.5c1.3-0.9,2.1-2.2,2.4-3.7c0.1-0.2,0.2-0.4,0.4-0.4
	c1.2-0.4,1.8-1.6,2.7-2.3c0.8-0.6,1.4-1.5,1.6-2.5c0-0.3,0.2-0.6,0.5-0.8c0.8-0.6,1.5-1.4,1.9-2.3c1.1-1.9,2.8-3.2,4.2-4.8
	c0.4-0.3,0.7-0.8,1-1.2c0.4-1,0.9-1.9,2.2-2.1c0.3,0,0.6-0.4,0.7-0.6c0.7-1,1.7-1.7,2.8-2.3c0.3-0.2,0.8-0.3,1-0.6
	c1-1.4,2.5-1.9,4-2.4c0.5-0.3,1-0.7,1.3-1.1c0.7-1,1.8-1.5,3-1.3c1.1,0.1,2.1-0.1,3.1-0.4c1.5-0.6,3.1-0.4,4.4,0.5
	c0.4,0.3,1,0.4,1.5,0.4c1.3-0.1,1.9,0.9,2.7,1.5c0.2,0.2,0.2,0.8,0.1,1.1c-0.2,1.6-0.4,3.1-0.6,4.7c0,0.6-0.2,1.2-0.7,1.6
	c-0.3,0.3-0.6,0.7-0.9,1.1c-1.2,2-2.4,4-3.6,6c-0.3,0.5-0.6,0.9-0.9,1.3c-0.9,1.3-1.9,2.6-2.8,3.9c-0.5,0.6-1,1.2-1.6,1.7
	c-1.5,1.2-2.7,2.6-3.6,4.3c-0.6,0.9-1.3,1.7-2.2,2.3c-1.3,1.2-2.7,2.4-4,3.6c-0.3,0.3-0.5,0.6-0.8,0.9c-0.3,0.4-0.2,1.1,0.2,1.4
	c0,0,0,0,0,0c0.5,0.4,1.1,0.8,1.6,1.2c1.1,0.9,2.3,1.8,3.4,2.8c1.1,1,1.5,1.2,2.8,0.5c0.5-0.3,0.9-0.5,1.4-0.7
	c0.9-0.3,1.5-1.1,1.4-2c0-0.5,0-0.9,0-1.4c0-0.5,0.2-1,0.4-1.5c0.5-0.7,0.7-1.5,0.6-2.3c-0.1-0.8,0.3-1.6,1-2c0.9-0.6,1.6-1.5,2-2.5
	c0.8-1.2,1.9-2.1,3.1-2.7c0.9-0.5,1.8-0.9,2.7-1.3c0.5-0.2,1-0.3,1.5-0.1c0.9,0.4,1.9,0.7,2.8,1.2c1.9,1.1,2.7,3.3,1.9,5.3
	c-0.4,0.9-1.1,1.7-1.6,2.5c-0.4,0.6-0.6,1.1-1,1.7c-0.1,0.3-0.3,0.6-0.5,0.9c-1,1.2-2,2.3-3.1,3.4s-1.7,2.2-2.9,3
	c-0.6,0.4-0.5,1.4,0.2,1.9s1.3,1,1.9,1.4c1.3,0.9,3,1,4.4,0.5c1.9-0.5,3.8-1.3,5.5-2.3c1.8-0.9,3-2.5,3.5-4.5
	c0.5-2.8,1.7-5.5,3.5-7.8c0.7-0.7,1.4-1.4,2.2-2c0.1-0.1,0.5,0,0.7,0.2c0.7,0.3,1,0.3,1.3-0.3c0.1-0.1,0.1-0.2,0.1-0.4
	c0.1-0.5,0.1-0.9,0.7-1.2c0.6-0.3,1.3-0.3,1.9,0.1c1.5,0.8,2.9,1.6,4.4,2.4c1.2,0.9,2.8,0.6,3.7-0.6c0.1-0.1,0.1-0.2,0.2-0.2
	c1.2-1.8,2.5-3.6,2.9-5.9c0.1-0.4,0.2-0.9,0.2-1.3c0-0.5,0.2-1.1,0.6-1.4c0.6-0.5,1-1.3,1-2.1c0.2-1.8,1-3.4,2.5-4.4
	c0.4-0.4,0.6-0.8,0.8-1.4c0.3-0.7,0.4-1.4,0.6-2.1c0.2-1.1,0.7-2,1.6-2.7c0.3-0.3,0.6-0.7,0.9-1.1c1.5-1.9,3.5-2.4,5.7-2.1
	c0.4,0.1,0.8,0.4,1.1,0.7c0.6,0.7,0.9,1.7,0.7,2.6c-0.2,1.1-0.6,2.2-1,3.2c-0.8,2.1-1.7,4.1-2.8,6c-0.7,1.3-1.1,2.7-2.4,3.6
	c-0.4,0.3-0.6,0.7-0.7,1.2c-0.1,0.7-0.5,1.4-1.1,1.9c-0.2,0.2-0.3,0.4-0.3,0.7c0,0.9-0.4,1.8-1.1,2.5c-1,1.2-1.7,2.5-2.1,3.9
	c-1.6,2.2-1.8,4.9-2.4,7.4c-0.1,0.3-0.1,0.5-0.1,0.8c-0.1,0.9,0.4,1.7,1.1,2.2c0.7,0.5,1.3-0.2,1.8-0.5c1.9-1.5,3.7-3,4.6-5.5
	c0.3-1.1,1-2,1.9-2.8c0.8-0.8,1.4-1.8,1.8-2.8c0.6-1.2,1.1-2.5,2.2-3.3c0.1-0.1,0.2-0.2,0.2-0.3c0.1-1.3,1.2-2.2,1.5-3.5
	c0.3-0.9,0.6-1.8,1.9-1.7c0.2,0,0.5-0.4,0.7-0.6c0.8-0.8,1.4-0.6,1.7,0.5c0,0.1,0,0.3,0,0.4c0.3,1.4,0.3,1.4,1.7,1.4
	c0.4,0,0.8,0,1.2,0.2c1.2,0.6,2.6,1,4,1.1c1.1,0,2.1,0.8,2.3,1.9c0.3,1.2,1,2.3,2,3.2c0.5,0.4,0.6,1,0.5,1.6
	c-0.2,0.7-0.2,1.4-0.4,2.2c0,0.5-0.2,0.9-0.3,1.3c-1.1,2.2-0.6,4.6-0.7,6.9c0,0.9,0.6,1.1,1.4,0.5c1.5-1,2.9-2.1,4.2-3.4
	c1.5-1.6,2.6-3.6,3.2-5.7c0.1-0.4,0.1-0.8,0.1-1.2c0-0.4,0-0.8,0-1.2c0.2-1.6,0.8-2.3,2.4-2.5c1.2-0.1,2.6-0.4,3.5,0.8
	c0.3,0.3,0.7,0.4,1.1,0.2c0,0,0,0,0,0c0.6-0.4,1.4-0.5,2.1-0.2c0.4,0.2,0.9,0.2,1.4,0.1c1.3-0.2,2.5,0,3.7,0.5c1,0.4,1.9,1,2.7,1.7
	c0.2,0.1,0.2,0.6,0.1,0.9c0,0.3-0.2,0.3-0.4,0.5c-1.5,1.4-2.3,3.4-2.1,5.4c0.1,1.1-0.1,2.1-0.5,3.2c-0.4,0.9-0.2,1.5,0.3,1.8
	c0.6,0.4,1.5,0.3,2-0.2c1-0.7,1.8-1.6,2.5-2.5c1.1-1.4,1.9-2.9,2.5-4.5c0.3-1,0.8-1.8,1.6-2.5c1.2-1.1,1.5-2.5,2-3.9
	c0.5-1.4-0.3-2.1-1.5-2.4c-1.5-0.4-2.9-0.9-4.3-1.5c-0.9-0.6-1.7-1.3-2.3-2.2c-0.5-0.5-0.5-1.3,0.1-1.8c0.2-0.2,0.4-0.3,0.7-0.3
	c1-0.3,2.1-0.4,3.2-0.3c0.5,0.1,1.1,0,1.6-0.2c0.7-0.3,1.6-0.3,2.4-0.1c0.4,0.1,0.8,0.2,1.2,0.2c0.6,0,1.2-0.4,1.4-1
	c0.2-0.6,0.4-1.3,0.6-1.9c0.3-0.9,0.8-1.7,1.3-2.4c0.9-1.2,1.5-2.5,2.3-3.8c0.1-0.2,0.2-0.4,0.3-0.5c0.6-0.7,1.1-1.5,1.8-1.8
	c0.9-0.2,1.8-0.2,2.8-0.1c1.1,0.4,1.9,1.3,2.1,2.4c0,1.7,0.1,3.3,0,5c-0.1,0.6-0.4,1.1-0.7,1.6c-0.2,0.3-0.5,0.6-0.7,1
	c-0.2,0.3-0.1,0.8,0.3,1c0,0,0.1,0,0.1,0c0.9,0.4,2,0.3,2.9-0.2c1-0.5,2.2-0.7,3.3-0.6c1.5,0,3-0.2,4.6-0.4c0.3-0.1,0.7-0.1,1-0.1
	c1.4,0.3,2.8,0.1,4.1-0.6c0.5-0.2,1-0.3,1.5-0.1c1.5,0.5,3.1,0.3,4.5-0.3c0.4-0.1,0.9-0.2,1.3-0.2c0.5,0,1.1-0.1,1.5-0.2
	c1.8-1,3.6-0.5,5.5-0.3c0.7,0.1,1.5,0.1,2.2-0.1c0.8-0.3,1.7-0.4,2.5-0.6c0.3,0,0.6-0.2,0.9-0.4c0.8-0.8,1.9-1.1,2.9-0.9
	c0.7,0,1.3-0.1,2-0.2c0.9-0.1,1.9-0.2,2.8-0.2c1.1,0,2.1,0.6,2.8,1.4c0.9,0.8,1,2.1,0.2,3c-0.1,0.1-0.1,0.1-0.2,0.2
	c-0.8,0.8-1.7,1.6-2.7,2.4c-0.8,0.6-1.8,0.9-2.8,0.9c-1.7,0-3.3,0.1-5,0.2c-0.3,0-0.7,0.1-1,0.2c-1.6,0.8-3.5,1-5.2,0.5
	c-0.7-0.2-1.5-0.2-2.2-0.1c-1.7,0.1-3.3,0.4-4.9,1c-1.1,0.3-2.2,0.4-3.4,0.3c-0.5,0-0.9-0.1-1.4-0.1c-1.9,0.2-3.8,0.4-5.8,0.6
	c-0.7,0.1-1.5,0.1-2.2,0.2l-3,0.2c-0.3,0-0.5,0.1-0.8,0.1c-1.7,0-3.3,0-5,0.1c-1.1,0.1-2.2,0.4-3.3,0.7c-0.4,0.2-0.7,0.4-0.9,0.8
	c-0.8,1-1.3,2.2-1.6,3.4c-0.1,0.5-0.2,1-0.5,1.5c-1.1,1.1-1.2,2.5-1.6,3.8c-0.2,0.8-0.3,1.7-0.2,2.6c0,0.3,0.2,0.5,0.4,0.6
	c0.8,0.6,1.9,0.8,2.9,0.5c0.9-0.3,1.8-0.4,2.8-0.4c1.5,0,3.1,0,4.6-0.1c1-0.1,2-0.2,3-0.5c0.9-0.2,1.8-0.4,2.7-0.6
	c1.5-0.5,3.2-0.5,4.7,0.1c0.2,0.1,0.4,0.1,0.6,0.1c2.1-0.2,4.2-0.2,6.4-0.3c0.7,0,1.4-0.3,2.2-0.4c0.5-0.1,1-0.1,1.5,0.1
	c0.7,0.3,1.4,0.2,2.1-0.1c1-0.4,2.1-0.4,3.1,0c0.8,0.3,1.7,0.4,2.5,0.2c1-0.1,2-0.1,3,0c0.4,0,0.7,0.3,0.9,0.6
	c0.2,0.5,0.7,1,1.2,1.3c0.5,0.3,0.7,1,0.5,1.6c-0.1,0.7-0.6,1.2-1.2,1.4c-1.7,0.4-3.3,0.9-5,1.4c-0.5,0.2-1.1,0.2-1.5-0.1
	c-0.7-0.4-1.5-0.4-2.1-0.1c-1.5,0.5-3.2,0.4-4.7-0.2c-1.7-0.6-3.6-0.5-5.3,0.3c-1.2,0.6-2.7,0.9-4,0.6c-1-0.2-1.9,0-2.8-0.7
	c-0.2-0.2-1,0-1.3,0.2c-1.4,0.9-3,1.2-4.6,1c-3-0.1-6,0.1-8.9,0.8c-0.6,0.1-1.2,0-1.8-0.1c-1.1-0.2-2.2-0.4-3.4-0.5
	c-1,0-2-0.4-2.6-1.2c-0.3-0.4-0.7-0.8-1.1-1.1c-0.4-0.4-1-0.3-1.4,0.1c0,0,0,0,0,0c-1.1,1.2-2.1,2.4-3,3.8c-0.4,0.7-1.1,1.2-1.9,1.2
	c-0.5,0-1.1,0.1-1.6,0.2c-0.7,0-1.5,0.2-2.1,0.6c-0.8,0.5-1.7,0.5-2.5,0.1c-0.7-0.3-1.3-0.6-2-1c-2-1-2.6-2.7-2.4-4.8
	C374,47.6,374,47.1,374,46.7z M350.3,34.4c-1-0.1-1.9,0.3-2.5,1.1c-0.3,0.5-0.8,0.9-1.2,1.3c-1.7,1.3-2.5,3.3-3.3,5.1
	c-0.2,0.6-0.2,1.2,0.1,1.7c0.4,0.7,0.9,0.8,1.6,0.5c0.5-0.2,1-0.4,1.5-0.6c0.5-0.2,0.9-0.4,1.4-0.8c0.6-0.6,1.1-1.3,1.7-2
	c1.2-1.4,1.5-3.2,2.3-4.8c0.2-0.6,0-1.2-0.6-1.4c-0.1,0-0.2-0.1-0.3-0.1C350.7,34.4,350.5,34.4,350.3,34.4z M311.8,46.5
	c1,0,2-0.3,2.8-1c0.6-0.5,1.2-1.1,1.7-1.7c0.9-1,1.8-2,0.9-3.5c-0.1-0.2,0-0.5,0-0.8c-0.1-0.5-0.5-0.9-1-0.8
	c-0.5,0.1-1.1,0.1-1.6,0.1c-0.7-0.1-1.3,0.2-1.8,0.7c-0.7,0.6-1.1,1.4-1.1,2.3c-0.1,1.1-0.4,2.1-1,3
	C310.1,45.6,310.7,46.5,311.8,46.5z M293.2,35.6c0-0.1,0-0.2,0-0.3c-0.1-1-0.7-1.3-1.7-0.9c-0.7,0.3-1.3,0.9-1.7,1.6
	c-0.7,1.1-1.2,2.3-1.8,3.5c-0.1,0.4-0.2,0.9-0.1,1.4c0,0.4,0.4,0.7,0.8,0.6c0.1,0,0.2,0,0.3-0.1c0.2-0.1,0.4-0.3,0.6-0.5
	c1-1.2,1.9-2.3,3-3.5C293.1,37,293.3,36.3,293.2,35.6z M354.4,47.6l-0.3-0.2c0,0.1-0.2,0.2-0.1,0.3s0.1,0.1,0.2,0.2L354.4,47.6z"/>
<path fill="#FFFFFF" d="M486,16.7c0,2.2-0.5,4.3-1.6,6.2c-0.3,0.4-0.5,0.8-0.6,1.3c-0.9,2.9-3.2,4.3-5.9,5.2
	c-0.4,0.1-0.8,0.2-1.1,0.4c-1.6,0.7-3.4,0.9-5.1,0.5c-1.7-0.3-3.4-0.7-5.1-1c-0.7-0.1-1.4-0.5-1.8-1.1c-0.8-1-1.6-1.9-2.5-2.9
	c-1.5-1.8-2-3.9-2.5-6.1c-0.7-2.7-0.4-5.6,0.7-8.2c0.3-0.7,0.7-1.3,1.1-1.9c0.3-0.4,0.8-0.8,1-1.3c0.7-1.6,2-2.8,3.6-3.4
	c2.3-1.2,4.8-1.7,7.4-1.5c1.8,0.1,3.5,0.7,5.1,1.6c0.2,0.2,0.5,0.3,0.7,0.4c1.7,0.3,2.6,1.5,3.5,2.8c1.5,2.2,2.5,4.7,3,7.3
	C485.9,15.5,486,16.1,486,16.7z M473.2,6.1c-1.1,0-2.1,0.2-3.2,0.4c-3,1-5.5,3.2-6.6,6.2c-0.6,1.6-0.8,3.4-0.6,5.1
	c-0.1,1.6,0.4,3.2,1.5,4.5c1.7,1.7,3,3.8,5.5,4.5h0.2c2.5,0.7,5.2,0.6,7.7-0.2c0.9-0.2,1.8-0.7,2.4-1.4c1.6-1.6,2.6-3.7,2.7-6
	c0-0.5,0-0.9,0-1.4c-0.1-3.3-0.8-6.4-3.2-8.8c-0.5-0.5-0.8-1.1-1.4-1.4C476.8,6.6,475.2,5.7,473.2,6.1z"/>
<path fill="#FFFFFF" d="M94.3,23.2l-0.1,0.2l-0.2-0.2l0.1-0.1L94.3,23.2z"/>
<path fill="#FFFFFF" d="M467.8,15.7c0.2-1.8,1.2-3.4,2.7-4.3c1.6-1.1,4.6-0.8,6.4,1.2c0.4,0.4,0.3,1.1-0.1,1.4
	c-0.1,0-0.1,0.1-0.2,0.1c-0.4,0.2-0.7,0.3-1.1,0.3c-0.3,0-0.6-0.3-0.9-0.4c-2.5-1-3.1,0-3.9,2c-0.1,0.4-0.1,0.9,0,1.4
	c0.5,1.8,2.3,2.8,4.1,2.3c0.3-0.1,0.5-0.2,0.7-0.3c0.6-0.3,1-0.4,1.4,0.1s0.5,1,0,1.6c-1.7,1.6-4.3,1.9-6.3,0.6
	C468.5,20.4,467.8,19.1,467.8,15.7z"/>
</svg>
