<?xml version="1.0" encoding="utf-8"?>
<!-- Generator: Adobe Illustrator 22.1.0, SVG Export Plug-In . SVG Version: 6.00 Build 0)  -->
<svg version="1.1" id="Capa_1" xmlns="http://www.w3.org/2000/svg" xmlns:xlink="http://www.w3.org/1999/xlink" x="0px" y="0px"
	 viewBox="0 0 236.1 84.1" style="enable-background:new 0 0 236.1 84.1;" xml:space="preserve">
<style type="text/css">
	.st0{fill:#FFFFFF;}
	.st1{fill:#F8E12E;}
	.st2{fill:#FF0000;}
</style>
<title>eRecurso 1n9m</title>
<g id="Capa_2_1_">
	<g id="Capa_1-2">
		<path class="st0" d="M192.7,69.9c-0.3,0.8-0.8,1.5-1.3,2.2C182,82.7,170.1,85.5,156.8,83c-14.8-2.8-20.8-17.9-11.7-30
			c3.2-4.3,7.4-7.7,12.1-10.2c8.3-4.1,17-7.6,25.8-10.5c3.7-1.3,5.2-2.9,4.8-6.7c-0.3-3.1,0-6.4-0.5-9.5c-0.6-4.4-3.4-6.7-7.6-6.9
			c-3.9-0.3-7.5,2.3-8.3,6.1c-0.6,2.5-0.6,5.1-0.1,7.6c1.1,5.1-0.6,9-4.7,11.8c-4.1,3.1-9.6,3.3-14,0.6c-4.4-2.5-5.9-6.8-5.7-11.6
			c0.2-5.2,2.6-10.1,6.6-13.5c2.5-2.3,5.3-4.2,8.4-5.6c14.7-6,29.8-6.3,44.6-0.6c10.8,4.2,16.4,12.7,16.6,24.4
			c0.1,10.9,0,21.8,0,32.7c0,1.4-0.4,2.9,0.1,4.1c0.6,1.6,1.6,4.1,2.9,4.3c2.6,0.5,2.9-1.9,3-4c0.1-1.6,0.1-3.2,0.1-4.8
			c-0.2-2.7,0.7-4,3.7-4c3.3,0,3.2,1.9,3.3,4.3c0.5,7.9-1.5,14.7-8.6,18.9c-7.8,4.6-16.4,5.7-24.3,1
			C199.1,78.8,196.5,74.2,192.7,69.9z M187.7,38.8l-1.4-0.6c-7.3,6.4-9.3,14.8-8.8,24.2c0.2,3.1,0.8,6.1,4.7,6.3
			c3.1,0.2,5.3-2,5.4-6.4C187.8,54.5,187.6,46.6,187.7,38.8L187.7,38.8z"/>
		<path class="st1" d="M133.2,44.1c3.5,6.5,7,13.5,10.8,20.3c1.7,2.9,3.6,5.7,5.7,8.2c3.2,3.9,4.9,4.4,11.4,4.5c1,4.5,1,5-3,5.3
			c-7.7,0.8-15.5,1.2-23.3,1.1c-9.9-0.3-17.1-5.7-21.4-14.6c-3.1-6.4-6-13-9.8-19.5v8.9c0,4-0.1,8,0.1,12c0.2,4.7,2,6.6,6.6,7.2
			c2,0.3,3.4,0.4,3.3,2.9s-1.8,2.2-3.4,2.2c-14,0-28,0-42.1,0c-1.6,0-3.2,0.2-3.3-2.3c0-2.1,0.8-2.6,2.8-2.8
			c5.3-0.7,6.9-2.5,6.9-7.8c0-19,0-37.9,0-56.9c0-5.2-1.7-7.1-6.9-7.9c-2-0.3-2.8-0.8-2.8-2.8c0-2.6,1.6-2.3,3.2-2.3
			C87,0,106,0,125,0.1c2.2,0.1,4.4,0.4,6.6,1c15.6,3.7,21.7,19.8,12.3,32.8C141.1,37.6,137.1,40.5,133.2,44.1z M103.6,22.5
			c0,4.4-0.2,8.9,0.1,13.4c0.1,1.5,1,4,2,4.3c1.9,0.4,3.9,0,5.7-1c1.4-1,2.5-2.5,3-4.2c2.7-7.4,2.8-15.5,0.2-22.9
			c-1.2-3.6-3.9-5.6-7.9-5.8c-2.2-0.1-3.2,0.6-3.1,2.9C103.7,13.6,103.6,18,103.6,22.5z"/>
		<path class="st2" d="M68.2,42.8C72,50,75.5,56.9,79.3,63.7c1.6,2.9,3.5,5.6,5.7,8.2c3.2,3.9,4.9,4.4,11.3,4.5
			c1.2,4.4,1.1,5-2.9,5.3c-7.7,0.8-15.4,1.2-23.1,1.1c-9.9-0.3-16.9-5.6-21.3-14.4c-2.7-5.5-5.1-11.2-7.7-16.8c-0.4-1-1.1-1.9-2-2.5
			c0,7-0.2,14.1,0,21.1c0.1,4.4,2,6.2,6.4,6.8c1.8,0.3,3.5,0.2,3.4,2.8c-0.1,2.8-2.1,2.3-3.7,2.3C31.5,82,17.7,82,4,82
			c-1.4,0-3.3,0.6-3.4-2c-0.1-2.3,0.8-2.8,3-3.1c5-0.5,6.6-2.5,6.6-7.4c0.1-19,0.1-38,0-57c0-5.1-1.7-7-7-7.7c-2-0.3-2.6-1-2.6-2.9
			c0-2.2,1.3-2.2,2.8-2.2l58.4,0.2c0.6,0,1.3,0.1,1.9,0.2C72.6,1.7,80,5.3,82.6,14.9c2.4,8.9-1,18.2-8.9,24.3
			C72.1,40.4,70.3,41.5,68.2,42.8z M52.3,22.7c-0.8-3.8-1.3-7.6-2.3-11.2S46,6,42,5.9c-2-0.1-2.9,0.5-2.9,2.6
			c0,9.1-0.1,18.3,0.1,27.4c0.1,4,3.8,5.7,7,3.1c1.7-1.4,3-3.2,3.7-5.3C51.1,30.2,51.5,26.4,52.3,22.7z"/>
	</g>
</g>
</svg>
