<?xml version="1.0" encoding="utf-8"?>
<!-- Generator: Adobe Illustrator 22.1.0, SVG Export Plug-In . SVG Version: 6.00 Build 0)  -->
<svg version="1.1" id="Capa_1" xmlns="http://www.w3.org/2000/svg" xmlns:xlink="http://www.w3.org/1999/xlink" x="0px" y="0px"
	 viewBox="0 0 236.1 84.1" style="enable-background:new 0 0 236.1 84.1;" xml:space="preserve">
<style type="text/css">
	.st0{fill:#EEEA7C;}
</style>
<title>eRecurso 2logo1</title>
<g id="Capa_2_1_">
	<g id="Capa_1-2">
		<path class="st0" d="M236,61.3c-0.2-2.4-0.1-4.3-3.3-4.3c-2.9,0-3.9,1.3-3.7,4c0.1,1.6,0.1,3.2,0,4.8c-0.1,2.1-0.5,4.5-3,4
			c-1.2-0.3-2.2-2.7-2.9-4.3c-0.4-1.2-0.1-2.7-0.1-4.1c0-10.9,0.1-21.8,0-32.7c-0.1-11.7-5.7-20.2-16.6-24.4
			c-14.8-5.8-29.9-5.4-44.6,0.6c-3.1,1.4-5.9,3.3-8.4,5.6c-2.4,2-4.2,4.6-5.4,7.5c-1.3-7.8-7.3-14.5-16.6-16.7
			c-2.2-0.6-4.4-0.9-6.6-1C106,0,87,0,68.1,0c-1.3,0-3.2-0.7-3.6,0.8c-0.6-0.1-1.2-0.3-1.8-0.4c-0.6-0.1-1.3-0.2-1.9-0.2L2.3,0
			C0.8,0,0,0.6,0,2.8c0,2,0.6,2.7,2.7,2.9c5.3,0.7,7,2.6,7,7.7c0.1,19,0.1,38,0,57c0,5-1.7,6.9-6.6,7.4c-2.2,0.2-3.1,0.8-3,3.1
			c0.2,2.6,2,2,3.4,2c13.8,0,27.5,0,41.3,0c1.6,0,3.6,0.5,3.7-2.3c0.1-2.6-1.5-2.5-3.4-2.8c-4.4-0.6-6.3-2.4-6.4-6.8
			c-0.2-7,0-14.1,0-21.1c0.9,0.6,1.6,1.5,2,2.5c2.6,5.6,5,11.3,7.7,16.8c4.3,8.8,11.4,14.1,21.2,14.4c6.5,0.1,12.9-0.1,19.3-0.8
			c7.1,0,14.1,0,21.2,0c1.6,0,3.2,0.2,3.4-2.2s-1.3-2.6-3.3-2.9c-4.6-0.6-6.4-2.5-6.6-7.2c-0.2-4-0.1-8-0.1-12v-8.9
			c3.8,6.5,6.7,13,9.8,19.5c4.3,8.9,11.5,14.2,21.4,14.6c6.9,0.1,13.8-0.2,20.7-0.9c0.4,0.1,0.9,0.2,1.4,0.3
			c13.3,2.5,25.2-0.4,34.5-10.9c0.5-0.7,1-1.4,1.3-2.2c3.8,4.3,6.4,8.9,10.4,11.2c7.9,4.6,16.5,3.6,24.3-1
			C234.4,75.9,236.5,69.2,236,61.3z M49.3,34.6c-0.7,2.1-2,3.9-3.7,5.3c-3.2,2.5-6.9,0.9-7-3.1c-0.2-9.1,0-18.3-0.1-27.4
			c0-2.1,1-2.7,2.9-2.6c3.9,0.2,6.8,2,7.9,5.7s1.6,7.4,2.3,11.2C50.9,27.3,50.5,31.1,49.3,34.6z M67.6,43.6c2.1-1.4,3.9-2.4,5.5-3.6
			c0.5-0.4,1-0.8,1.4-1.2c0,6,0,12,0,18C72.3,52.6,70,48.2,67.6,43.6L67.6,43.6z M114.3,34.9c-0.5,1.7-1.6,3.1-3,4.2
			c-1.7,1-3.7,1.4-5.7,1c-1-0.3-1.9-2.7-2-4.3c-0.3-4.4-0.1-8.9-0.1-13.4s0.1-8.9,0-13.4c-0.1-2.3,0.9-3,3.1-2.9
			c4,0.2,6.7,2.2,7.9,5.8C117.1,19.5,117,27.6,114.3,34.9L114.3,34.9z M187.6,62.3c-0.1,4.4-2.2,6.6-5.4,6.4
			c-3.9-0.3-4.5-3.2-4.7-6.3c-0.5-9.3,1.5-17.8,8.7-24.2l1.4,0.6C187.6,46.6,187.8,54.5,187.6,62.3L187.6,62.3z M183,32.3
			c-8.8,2.9-17.4,6.5-25.7,10.5c-4.7,2.5-8.9,6-12.1,10.2c-1.6,2.1-2.8,4.5-3.6,7c-2.9-5.4-5.7-10.7-8.4-15.9
			c3.9-3.7,7.9-6.5,10.6-10.3c1.3-1.8,2.4-3.9,3.2-6c0.6,3.2,2.6,6,5.4,7.6c4.4,2.7,9.9,2.4,14-0.6c4.1-2.8,5.8-6.7,4.7-11.9
			c-0.5-2.5-0.5-5.1,0.1-7.6c0.8-3.9,4.4-6.5,8.3-6.1c4.1,0.2,7,2.5,7.6,6.9c0.4,3.1,0.2,6.3,0.5,9.5C188.1,29.4,186.6,31,183,32.3z
			"/>
	</g>
</g>
</svg>
