<svg xmlns="http://www.w3.org/2000/svg" viewBox="0 0 236.06 84.13"><defs><style>.cls-1{fill:#f7ec45;}</style></defs><title>eRecurso 2logo1</title><g id="Capa_2" data-name="Capa 2"><g id="Capa_1-2" data-name="Capa 1"><path class="cls-1" d="M236,61.25c-.16-2.36-.08-4.27-3.33-4.26-2.94,0-3.85,1.32-3.67,4a44.3,44.3,0,0,1,0,4.75c-.09,2.07-.48,4.54-3,4-1.23-.25-2.24-2.7-2.86-4.34-.45-1.22-.1-2.74-.1-4.13,0-10.89.07-21.78,0-32.67-.13-11.74-5.73-20.22-16.55-24.43-14.8-5.75-29.85-5.43-44.57.59a31.58,31.58,0,0,0-8.35,5.55,19,19,0,0,0-5.35,7.53C146.87,10,140.92,3.34,131.57,1.1a29.72,29.72,0,0,0-6.6-1C106,0,87,0,68.05,0c-1.34,0-2.7-.14-3.11,1.3C64.33,1.16,63.72,1,63.1.93A10.89,10.89,0,0,0,61.21.76L2.82.56C1.31.56,0,.6,0,2.75c0,2,.58,2.65,2.65,2.92,5.31.69,7,2.56,7,7.67q.09,28.49,0,57c0,5-1.69,6.89-6.64,7.43-2.17.23-3.12.77-3,3.07.15,2.59,2,2,3.43,2q20.66.06,41.3,0c1.64,0,3.61.51,3.71-2.32.09-2.62-1.54-2.52-3.36-2.77-4.42-.61-6.26-2.38-6.4-6.79-.22-7,0-14.1,0-21.14a5.76,5.76,0,0,1,2,2.55c2.57,5.61,5,11.29,7.7,16.81C52.66,78,59.75,83.28,69.6,83.61a166.77,166.77,0,0,0,19.33-.76q10.6,0,21.22,0c1.57,0,3.24.22,3.37-2.24S112.2,78,110.25,77.7c-4.63-.6-6.4-2.53-6.61-7.21-.19-4-.06-8-.07-12V49.6c3.85,6.47,6.7,13,9.84,19.45,4.34,8.86,11.49,14.21,21.4,14.56a174.13,174.13,0,0,0,20.66-.87c.45.12.91.21,1.37.3,13.3,2.47,25.2-.39,34.5-10.92a10,10,0,0,0,1.34-2.22c3.83,4.29,6.41,8.93,10.35,11.24,7.92,4.62,16.49,3.59,24.31-1C234.44,75.94,236.5,69.15,236,61.25ZM49.35,34.63a11.67,11.67,0,0,1-3.73,5.28c-3.19,2.53-6.9.86-7-3.12-.18-9.15,0-18.3-.09-27.44,0-2.1,1-2.72,2.91-2.64,3.93.16,6.75,2,7.87,5.68s1.57,7.35,2.34,11.16C50.93,27.3,50.49,31.07,49.35,34.63Zm18.26,9c2.1-1.36,3.89-2.37,5.51-3.61.5-.38,1-.78,1.45-1.19q0,9,0,18C72.26,52.56,70,48.18,67.61,43.67Zm46.68-8.74a8.19,8.19,0,0,1-3,4.16,8.25,8.25,0,0,1-5.65,1c-1-.27-1.9-2.73-2-4.25-.26-4.44-.09-8.9-.09-13.35s.09-8.9,0-13.35c-.06-2.35.93-3,3.13-2.92,4,.21,6.69,2.19,7.87,5.84A34.07,34.07,0,0,1,114.29,34.93Zm73.28,27.42c-.12,4.38-2.24,6.63-5.39,6.39-3.92-.29-4.52-3.24-4.68-6.35C177,53,179,44.55,186.21,38.18l1.43.58C187.64,46.63,187.79,54.49,187.57,62.35ZM183,32.29a209.88,209.88,0,0,0-25.74,10.53,36.4,36.4,0,0,0-12.08,10.23,21.66,21.66,0,0,0-3.56,7c-2.89-5.37-5.66-10.74-8.37-15.88,3.9-3.69,7.91-6.51,10.64-10.26a24,24,0,0,0,3.2-6,10.75,10.75,0,0,0,5.43,7.56,12.49,12.49,0,0,0,14-.64c4.14-2.84,5.76-6.72,4.69-11.85a18.32,18.32,0,0,1,.1-7.59,7.85,7.85,0,0,1,8.34-6.15c4.15.18,7,2.51,7.6,6.9.45,3.11.16,6.33.49,9.47C188.14,29.36,186.64,31,183,32.29Z"/></g></g></svg>