<svg xmlns="http://www.w3.org/2000/svg" viewBox="0 0 236.06 84.13"><defs><style>.cls-1{fill:blue;}.cls-2{fill:#f8e12e;}.cls-3{fill:red;}</style></defs><title>eRecurso 1n9m</title><g id="Capa_2" data-name="Capa 2"><g id="Capa_1-2" data-name="Capa 1"><path class="cls-1" d="M192.68,69.9a10,10,0,0,1-1.34,2.22C182,82.65,170.14,85.51,156.84,83c-14.78-2.75-20.79-17.94-11.68-30a36.4,36.4,0,0,1,12.08-10.23A209.88,209.88,0,0,1,183,32.29c3.66-1.29,5.16-2.93,4.76-6.7-.33-3.14,0-6.36-.49-9.47-.63-4.39-3.45-6.72-7.6-6.9a7.85,7.85,0,0,0-8.34,6.15,18.32,18.32,0,0,0-.1,7.59c1.07,5.13-.55,9-4.69,11.85a12.49,12.49,0,0,1-14,.64c-4.45-2.52-5.95-6.8-5.69-11.62a18.86,18.86,0,0,1,6.63-13.51,31.58,31.58,0,0,1,8.35-5.55c14.72-6,29.77-6.34,44.57-.59,10.82,4.21,16.42,12.69,16.55,24.43.11,10.89,0,21.78,0,32.67,0,1.39-.35,2.91.1,4.13.62,1.64,1.63,4.09,2.86,4.34,2.55.53,2.94-1.94,3-4A44.3,44.3,0,0,0,229,61c-.18-2.68.73-4,3.67-4,3.25,0,3.18,1.9,3.33,4.26.52,7.9-1.54,14.69-8.64,18.87-7.82,4.61-16.39,5.65-24.31,1C199.09,78.83,196.51,74.19,192.68,69.9Zm-5-31.14-1.43-.58C179,44.55,177,53,177.5,62.39c.16,3.12.76,6.06,4.68,6.35,3.15.24,5.27-2,5.39-6.39C187.79,54.49,187.64,46.63,187.64,38.76Z"/><path class="cls-2" d="M133.23,44.14c3.46,6.55,7,13.51,10.79,20.32a54.66,54.66,0,0,0,5.72,8.22c3.19,3.87,4.86,4.38,11.37,4.5,1,4.48,1,5-3,5.34a195.13,195.13,0,0,1-23.29,1.09c-9.91-.35-17.06-5.7-21.4-14.56-3.14-6.42-6-13-9.84-19.45v8.93c0,4-.12,8,.07,12,.21,4.68,2,6.61,6.61,7.21,2,.25,3.41.37,3.27,2.91s-1.8,2.24-3.37,2.24q-21,0-42.09,0c-1.6,0-3.23.21-3.25-2.29,0-2.09.83-2.59,2.79-2.84,5.34-.69,6.92-2.49,6.93-7.79q.07-28.46,0-56.92c0-5.18-1.71-7.14-6.94-7.87-2-.27-2.81-.75-2.79-2.84C64.83-.21,66.45,0,68.05,0,87,0,106,0,125,.14a30.31,30.31,0,0,1,6.6,1c15.55,3.73,21.73,19.81,12.3,32.78C141.14,37.63,137.13,40.45,133.23,44.14ZM103.58,22.47c0,4.45-.17,8.91.09,13.35.09,1.52,1,4,2,4.25a8.25,8.25,0,0,0,5.65-1,8.19,8.19,0,0,0,3-4.16A34.07,34.07,0,0,0,114.54,12c-1.18-3.65-3.9-5.63-7.87-5.84-2.2-.12-3.19.57-3.13,2.92C103.67,13.57,103.58,18,103.58,22.47Z"/><path class="cls-3" d="M67.61,43.67c3.79,7.19,7.31,14.08,11.07,20.84a56,56,0,0,0,5.66,8.18c3.21,3.9,4.91,4.43,11.26,4.52,1.16,4.37,1.1,5-2.88,5.32A192.39,192.39,0,0,1,69.6,83.61C59.75,83.28,52.66,78,48.33,69.18c-2.72-5.52-5.13-11.2-7.7-16.81a5.76,5.76,0,0,0-2-2.55c0,7-.17,14.1,0,21.14.14,4.41,2,6.19,6.4,6.79,1.82.25,3.45.15,3.36,2.77-.1,2.83-2.07,2.32-3.71,2.32q-20.64.06-41.3,0c-1.44,0-3.28.56-3.43-2-.13-2.3.82-2.84,3-3.07,5-.54,6.62-2.46,6.64-7.43q.09-28.48,0-57c0-5.1-1.68-7-7-7.67C.58,5.4,0,4.71,0,2.75,0,.6,1.31.56,2.82.56l58.39.2A10.89,10.89,0,0,1,63.1.93C72,2.53,79.43,6.12,82,15.75c2.43,8.94-1,18.24-8.92,24.31C71.5,41.3,69.71,42.31,67.61,43.67ZM51.68,23.55c-.77-3.81-1.25-7.58-2.34-11.16S45.4,6.87,41.47,6.71c-1.95-.08-2.92.54-2.91,2.64,0,9.14-.09,18.29.09,27.44.07,4,3.78,5.65,7,3.12a11.7,11.7,0,0,0,3.73-5.27C50.49,31.08,50.93,27.3,51.68,23.55Z"/></g></g></svg>