<svg xmlns="http://www.w3.org/2000/svg" viewBox="0 0 1323.4 147.15"><defs><style>.cls-1{fill:#fff;}</style></defs><title>eRecurso 7name</title><g id="Capa_2" data-name="Capa 2"><g id="Capa_5" data-name="Capa 5"><path class="cls-1" d="M105,82.12c5.89,11.15,11.34,21.86,17.18,32.36A85.67,85.67,0,0,0,131,127.17c5,6.06,7.62,6.89,17.49,7,1.8,6.78,1.7,7.71-4.48,8.25-11.93,1.05-24,2.08-35.9,1.68-15.28-.51-26.3-8.76-33-22.4-4.23-8.58-8-17.4-12-26.1a8.88,8.88,0,0,0-3.1-4c0,10.94-.25,21.89.09,32.83.22,6.85,3.08,9.61,9.93,10.54,2.83.39,5.36.23,5.22,4.3-.15,4.39-3.22,3.61-5.75,3.62q-32.07.08-64.14,0c-2.23,0-5.09.86-5.32-3.15-.21-3.58,1.27-4.41,4.63-4.78,7.7-.84,10.29-3.81,10.32-11.53Q15.11,79.24,15,35c0-7.92-2.61-10.83-10.86-11.91C.91,22.69,0,21.62,0,18.57c0-3.34,2-3.4,4.37-3.39l90.68.3a18,18,0,0,1,2.93.27c13.87,2.48,25.35,8.06,29.42,23,3.77,13.88-1.54,28.32-13.86,37.74C111,78.43,108.24,80,105,82.12ZM80.25,50.88c-1.2-5.92-1.94-11.77-3.64-17.33S70.49,25,64.4,24.72c-3-.12-4.54.84-4.52,4.1C60,43,59.74,57.23,60,71.43c.12,6.18,5.87,8.78,10.83,4.84a18.14,18.14,0,0,0,5.79-8.18C78.39,62.56,79.09,56.69,80.25,50.88Z"/><path class="cls-1" d="M241.48,23.16,297.79.93V53.82a34.2,34.2,0,0,0,3.53-2.23c17.94-15.77,48.33-7.91,59.43,14.1,19,37.72-5.11,79.41-47.41,81.16-13.85.57-27-1.75-38.24-10.47-2.93-2.28-5-2.06-7.52.38a20.87,20.87,0,0,1-5.19,4.08,12.66,12.66,0,0,1-6.72,1.54c-.79-.1-1.6-3.61-1.61-5.56-.1-30-.29-59.95.08-89.92.09-7.62-1-13.92-7.63-18.5C244.75,27.18,243.47,25.27,241.48,23.16Zm56,73.52.8,0c0,3.93,0,7.86,0,11.78a27.43,27.43,0,0,0,.26,5.14c1,5,1.49,10.32,3.47,14.95,3,7,11.35,7.22,15,.52a24,24,0,0,0,3.18-10.44c.36-14.43.44-28.87,0-43.29a24.82,24.82,0,0,0-3.92-11.66c-3.45-5.54-10.57-5.11-13.93.5a17.88,17.88,0,0,0-2.44,6.86C298.88,79.6,298.22,88.15,297.43,96.68Z"/><path class="cls-1" d="M193.89,43.11c3.42.46,8.6.8,13.62,1.86,25.27,5.35,41,24.89,40.94,50.44-.09,25-16,44.45-40.91,49.82a71.07,71.07,0,0,1-34.32-.81c-24-6.63-39.09-26.45-38.35-50.47.76-24.53,16.32-43.34,40.46-48.86a59.58,59.58,0,0,1,7.25-1.32C185.75,43.43,189,43.38,193.89,43.11Zm10.34,52c-.64-8.25-1.14-16.56-2-24.83a41.64,41.64,0,0,0-2.3-9.22c-1.28-3.64-3.57-6.62-7.84-6.72-4.66-.11-7,3.14-8.45,7a24.76,24.76,0,0,0-1.91,7.81c-.47,15.4-.89,30.81-.85,46.21,0,4.31,1.41,8.69,2.66,12.89,1.16,3.91,3.4,7.2,8.12,7.31,5.14.12,7.3-3.48,8.7-7.58a37.71,37.71,0,0,0,1.93-8.57C203.08,111.37,203.6,103.31,204.23,95.14Z"/><path class="cls-1" d="M465.2,135a17.69,17.69,0,0,0-3.27,1.4c-17.29,11.95-36.25,13.07-55.73,7.74-24.82-6.79-38.09-27.42-35.58-53.84,2.44-25.63,21.19-44.67,46.12-46.66a80.38,80.38,0,0,1,12.51,0,40,40,0,0,1,36.87,42.85c-.26,3.76-2.54,3.62-5,3.62-12,0-24.08,0-36.12,0H412.72c.88,33.13,22.83,47.43,53.63,34.3-.51,4.08-.92,7.42-1.34,10.77ZM419.4,82.15c8.5,0,11.06-1,11.56-5.87A44.79,44.79,0,0,0,430.21,64a7.68,7.68,0,0,0-7-6.56,8,8,0,0,0-8.75,5.31A40.84,40.84,0,0,0,411.85,74C411.16,82.13,411.36,82.14,419.4,82.15Z"/><path class="cls-1" d="M783.14,82.37c5.33,10.1,10.79,20.83,16.64,31.33a85.8,85.8,0,0,0,8.81,12.69c4.94,6,7.5,6.75,17.55,6.94,1.61,6.9,1.58,7.69-4.64,8.23-11.94,1-24,2.09-35.92,1.68-15.29-.53-26.32-8.79-33-22.46-4.85-9.89-9.24-20-15.18-30v13.78c0,6.15-.18,12.31.1,18.44.34,7.22,3.07,10.21,10.21,11.13,3,.39,5.25.57,5,4.49s-2.78,3.45-5.2,3.45q-32.46,0-64.93,0c-2.46,0-5,.33-5-3.53,0-3.22,1.28-4,4.32-4.39,8.22-1.05,10.66-3.84,10.68-12q.12-43.89,0-87.79c0-8-2.64-11-10.71-12.13-3-.42-4.32-1.17-4.29-4.39,0-3.87,2.54-3.54,5-3.54,29.26,0,58.53.05,87.79.21A45.19,45.19,0,0,1,780.57,16c24,5.74,33.52,30.54,19,50.55C795.35,72.33,789.15,76.67,783.14,82.37ZM737.41,49c0,6.86-.26,13.74.14,20.58.14,2.35,1.53,6.15,3.07,6.55a12.66,12.66,0,0,0,8.7-1.5c2.1-1.2,3.7-4,4.6-6.42,4.34-11.66,4.19-23.55.39-35.3-1.82-5.64-6-8.68-12.13-9-3.4-.19-4.93.88-4.83,4.52C737.54,35.22,737.41,42.08,737.41,49Z"/><path class="cls-1" d="M1154.2,63.92l54.72-22.47V59c7.16-8,13.14-14.93,22.73-16.29s17.33,1.9,23.21,10.35l50.08-41.53,1.65.48V33.53c0,11.71,0,11.78,11.68,12.38,3,.16,5.25.48,5.13,4.39-.12,3.66-2.45,3.58-5,3.75-11.8.77-11.8.8-11.8,12.35q0,25.82,0,51.62c0,11.46,2.43,13.43,13.71,11.29.68-.13,1.37-.22,2-.33,1.82,8.13,1.52,9.09-5.32,12.07a58.64,58.64,0,0,1-30.27,4.64c-15.23-1.71-24-11.69-24.2-27.43-.21-19.42-.14-38.84,0-58.26,0-4.66-1-7.22-5.83-5.42-.48,5-.13,10-1.55,14.41-4,12.43-18.06,15.24-27,5.74-1.85-2-3.19-4.62-5.37-6s-5.54-2.8-7.88-2.21c-1.66.42-3.4,4.09-3.51,6.38-.44,9.08-.27,18.18-.29,27.28,0,7.62-.1,15.24,0,22.85.15,8.08,1.53,9.84,9.47,11.16,2.86.47,3.67,1.58,3.72,4.21,0,3-1.58,3.69-4.15,3.69q-31,0-61.94,0c-2.66,0-4.09-.83-4-3.79,0-2.69,1-3.68,3.81-4.13,7.9-1.26,9.34-3.06,9.41-11.17.12-13.27-.18-26.55.15-39.82.13-4.88-1.21-8.49-4.93-11.52C1159.91,69.38,1157.35,66.81,1154.2,63.92Z"/><path class="cls-1" d="M1024.84,0V8.22q0,56.39,0,112.76c0,10.53.29,10.69,10.22,13.49,1.27.35,2.53,2.44,2.88,3.93.69,3-1.35,3.7-3.93,3.69-10.07,0-20.14,0-30.22,0H991.28c-7.94,0-7.94,0-8.65-8.24a39.71,39.71,0,0,0-3.59,2.52c-20.71,18.54-51.42,8.12-61-13-9.06-19.92-9-39.87,3.31-58.28,12.45-18.66,31.53-23.77,52.91-22.38,1,.07,2,.27,2.92.43s1.79.31,2.8.48c4.2-11.51-7.59-14.23-11-21.54ZM981.4,92.3l-.83,0c0-3.93,0-7.87,0-11.8a30.38,30.38,0,0,0-.34-5.89c-1-4.78-1.56-9.82-3.57-14.18-3.12-6.79-11.63-6.78-15.14-.19a24.37,24.37,0,0,0-3,9.77c-.65,12.25-1.2,24.54-1,36.8.1,5.52,1.86,11.09,3.4,16.49a8,8,0,0,0,8.39,6c4.14-.09,6.81-2.54,8.17-6.37a25.28,25.28,0,0,0,1.57-5.65C980,108.92,980.64,100.61,981.4,92.3Z"/><path class="cls-1" d="M1102.54,128.7a12.49,12.49,0,0,1-1.66,2.77c-11.55,13.06-26.31,16.61-42.81,13.54-18.34-3.41-25.79-22.26-14.49-37.21a45.2,45.2,0,0,1,15-12.69c10.23-5.2,21.09-9.26,31.94-13.07,4.55-1.6,6.4-3.63,5.91-8.32-.41-3.89,0-7.88-.6-11.75-.79-5.44-4.28-8.33-9.44-8.56A9.79,9.79,0,0,0,1076,61.05a23,23,0,0,0-.12,9.41c1.33,6.38-.68,11.18-5.82,14.71a15.51,15.51,0,0,1-17.39.8c-5.52-3.13-7.39-8.45-7.06-14.42a23.38,23.38,0,0,1,8.22-16.77,39.13,39.13,0,0,1,10.36-6.88c18.27-7.47,36.94-7.87,55.3-.73,13.43,5.22,20.38,15.74,20.53,30.3.15,13.51,0,27,0,40.54,0,1.72-.43,3.61.14,5.12.76,2,2,5.08,3.54,5.39,3.17.66,3.65-2.41,3.76-5a55.13,55.13,0,0,0,0-5.89c-.22-3.33.91-5,4.55-5,4,0,3.94,2.36,4.13,5.29.65,9.8-1.9,18.21-10.72,23.41-9.7,5.71-20.33,7-30.16,1.26C1110.49,139.79,1107.29,134,1102.54,128.7Zm-6.26-38.63-1.77-.72c-9,7.91-11.43,18.39-10.81,30,.2,3.86.94,7.51,5.81,7.88,3.91.29,6.55-2.5,6.7-7.93C1096.47,109.59,1096.28,99.83,1096.28,90.07Z"/><path class="cls-1" d="M909.25,123.93c2,5.38.59,8.92-4,12.13-20.1,14.14-54.36,13.27-73.5-2.19C816,121.12,810.35,100,816.94,78.18a49.22,49.22,0,0,1,43.59-35.43,78.76,78.76,0,0,1,14,0,39.82,39.82,0,0,1,35.53,42.54c-.34,4.25-2.92,3.83-5.57,3.83-13.53,0-27.06,0-40.58,0-8.21,0-8.36.09-6.34,8.37a70,70,0,0,0,4.33,13.26c7.89,16.71,23.28,22.67,40.58,16C904.72,126,906.91,124.93,909.25,123.93Zm-45.7-42.67c8.59,0,11.34-1.3,11.72-6.74a29,29,0,0,0-1.47-12.23c-.95-2.45-4.28-5.25-6.77-5.48s-6.4,1.85-7.76,4.08c-2.07,3.41-2.93,7.75-3.5,11.81C854.56,81.15,854.86,81.28,863.55,81.26Z"/><path class="cls-1" d="M567,55.57c.07,3.42.49,6.89.14,10.27-.73,6.88-4.15,12.16-10.9,14.43-7,2.37-13.07.53-17.77-5.35-1.54-1.92-2.85-4.31-4.85-5.48-2.33-1.37-5.58-2.66-7.91-2-1.57.42-3.09,4.21-3.14,6.53-.31,14.26-.2,28.52-.22,42.79,0,3.19-.11,6.4.09,9.59.37,5.82,2.15,7.9,7.91,8.71,2.84.4,5.37.26,5.23,4.32-.16,4.37-3.23,3.6-5.78,3.61q-28.41.08-56.81,0c-7.59,0-8.28,1.32-7.81-8l-.19.19c11.6-.13,13.3-1.77,13.33-13.11,0-12.28-.22-24.55.11-36.82.15-5.52-.85-10.07-5.54-13.42-2.59-1.85-5-3.9-8.55-6.65l55.3-22.72V58c7.63-6.43,13.94-13.55,24.18-14.59,10.61-1.09,17.77,4.06,23.36,12.33Z"/><path class="cls-1" d="M567.2,55.75c.5-1.26.64-3,1.55-3.73,15.78-13.25,31.65-26.38,48.75-40.58V46.86c5.08,0,9.2,0,13.31,0,2.6,0,4.05.79,4.14,3.79.11,3.32-1.37,4.42-4.36,4.27-.49,0-1,0-1.48,0-11.28.42-11.29.42-11.29,12.08,0,17,0,33.93,0,50.89,0,12.89,2.18,14.52,15,11.92a3.69,3.69,0,0,1,1.3.25c1.22,8.27,1,8.87-5.84,11.88a58.1,58.1,0,0,1-30.26,4.62c-15-1.69-23.81-11.59-24-26.78-.18-19.42,0-38.84-.07-58.26,0-6.64-.08-6.64-7.05-6Z"/></g></g></svg>